<?xml version="1.0" encoding="utf-8"?>
<!-- Generator: Adobe Illustrator 27.8.0, SVG Export Plug-In . SVG Version: 6.00 Build 0)  -->
<svg version="1.1" id="Layer_1" xmlns="http://www.w3.org/2000/svg" xmlns:xlink="http://www.w3.org/1999/xlink" x="0px" y="0px"
	 viewBox="0 0 40 40" style="enable-background:new 0 0 40 40;" xml:space="preserve">
<style type="text/css">
	.st0{fill:#212121;}
</style>
<g>
	<path class="st0" d="M16.8,27.1H20l-5.8-13.9h-2.7l-6,13.9h3.3l1.2-2.8h5.7L16.8,27.1z M11,21.6l1.8-4.5l1.8,4.5H11z"/>
	<path class="st0" d="M17.8,12c0,0-0.7-1.7-2.2-2.2c4.2-2,9.1-1.3,12.5,1.8l0.2,0.2l0.8-0.9l-0.2-0.2C25,7.2,19.4,6.5,14.7,8.8
		c-0.2-0.8-0.5-1.5-0.9-2.2l-0.5-0.9l-0.1,1c0,1.5-0.4,2.9-1.1,4.2l-0.4,0.6C11.7,11.5,14.2,10.7,17.8,12z"/>
	<path class="st0" d="M28.3,13.6v1.8h1.4v5.8h-1.9c-0.4-0.6-1-1-1.7-1.2c-0.5-0.1-0.1-0.2,0-0.2c1.2-0.1,2.2-1.2,2.2-2.4V17
		c0.1-2.6-2.1-3.7-4.3-3.7c-1.8-0.2-3.4,1.1-3.6,2.9c0,0.3,0,0.7,0.1,1h1.7c-0.4-0.6-0.2-1.5,0.4-1.9c0.2-0.2,0.5-0.2,0.8-0.2
		c0.7,0,1.4,0.5,1.4,1.7V18c0,0.5-0.5,1-1,0.9c-0.2,0-0.4-0.1-0.6-0.2v2.5c0.2-0.2,0.4-0.2,0.7-0.2c0.5,0,1,0.3,1,1.1v1.2
		c0,1.3-0.6,1.8-1.2,1.8c-0.9-0.1-1.6-1-1.5-1.9c0-0.1,0-0.2,0.1-0.3h-1.7c-0.4,1.8,0.8,3.5,2.5,3.8c0.3,0.1,0.6,0.1,1,0.1
		c2.2,0,4.3-1.3,4.3-3.8h1.4v1.5h-0.5v2.3h4.1v-2.3h-0.5v-9.2h1.4v-1.7H28.3z"/>
	<path class="st0" d="M23.4,28.2c0,0,1,1.8,2.2,2.2c-4.2,2-9.2,1.3-12.7-1.9l-0.2-0.2l-0.8,0.9l0.2,0.2c3.9,3.6,9.7,4.4,14.4,1.9
		c0.1,2.4,1.4,3.1,1.4,3.1c0-3.5,1.6-5.8,1.6-5.8S25.6,29,23.4,28.2z"/>
</g>
</svg>
