<?xml version="1.0" encoding="utf-8"?>
<!-- Generator: Adobe Illustrator 27.8.0, SVG Export Plug-In . SVG Version: 6.00 Build 0)  -->
<svg version="1.1" id="Layer_1" xmlns="http://www.w3.org/2000/svg" xmlns:xlink="http://www.w3.org/1999/xlink" x="0px" y="0px"
	 viewBox="0 0 40 40" style="enable-background:new 0 0 40 40;" xml:space="preserve">
<style type="text/css">
	.st0{fill:#212121;}
</style>
<g id="Group_12" transform="translate(0 0)">
	<path id="Path_33" class="st0" d="M16.7,14c-0.5-1-0.6-2.2-0.3-3.2c0.2-0.8,0.7-1.5,1.4-2c1.3-1,3.1-1,4.5,0
		c1.5,1.2,1.8,2.8,1.1,5.2c0.1,0,0.2,0,0.3,0c0.8,0,1.7,0,2.5,0s1.6,0.5,1.9,1.4c1.5,4.7,2.9,9.3,4.4,14c0.4,1-0.1,2.2-1.1,2.6
		c-0.4,0-0.6,0.1-0.8,0c-7,0-14.1,0-21.1,0c-1,0-1.9-0.8-1.9-1.9c0-0.3,0-0.5,0.1-0.8c1.5-4.7,2.9-9.3,4.4-14c0.2-0.9,1-1.4,1.9-1.4
		C14.8,14,15.7,14,16.7,14 M21.9,12c0-1.1-0.9-2-1.9-2s-1.9,0.9-1.9,2s0.9,2,1.9,2C21.1,14,21.9,13.1,21.9,12L21.9,12"/>
</g>
</svg>
