<?xml version="1.0" encoding="utf-8"?>
<!-- Generator: Adobe Illustrator 27.8.0, SVG Export Plug-In . SVG Version: 6.00 Build 0)  -->
<svg version="1.1" id="Layer_1" xmlns="http://www.w3.org/2000/svg" xmlns:xlink="http://www.w3.org/1999/xlink" x="0px" y="0px"
	 viewBox="0 0 256 61.8" style="enable-background:new 0 0 256 61.8;" xml:space="preserve">
<style type="text/css">
	.st0{fill:url(#SVGID_1_);}
	.st1{fill:url(#SVGID_00000142868280424896395810000005185734771840457112_);}
	.st2{fill:#424143;}
	.st3{clip-path:url(#SVGID_00000169560039601473450750000014997213983846425242_);fill:#424143;}
	.st4{fill:#131523;}
	.st5{fill:#0058FF;}
	.st6{fill:#FFFFFF;}
</style>
<g>
	<g>
		<g>
			<g>
				<g>
					
						<linearGradient id="SVGID_1_" gradientUnits="userSpaceOnUse" x1="31.2096" y1="-20.8768" x2="31.2096" y2="23.1405" gradientTransform="matrix(1 0 0 1 0 31.3357)">
						<stop  offset="0" style="stop-color:#2D368F"/>
						<stop  offset="1" style="stop-color:#00A79C"/>
					</linearGradient>
					<path class="st0" d="M46.5,54.6c-4-1.3-6.8-4.3-9.4-7.4c-1.3,0.2-2.5-0.2-3.6-0.7c-0.7-0.4-1.1-0.7-1.4-1.3l0,0
						c0,0,0-0.2-0.2-0.2c-0.4-0.4-0.7-0.9-0.9-1.4c-0.7-1.3-1.4-2.3-2.2-3.6c-0.2-0.4-0.7-0.9-0.7-1.3c0.5-2.3,4.5,0,5.2,0.7
						c0.7,0.7,1.1,1.3,1.3,1.4c2.2-0.4,4.7-1.1,6.3-2.7c0.4-0.4,0.5-0.7,0.9-1.1c-0.9-0.2-1.8-0.4-2.5-0.4c-3.8-0.2-8.1,2-11-1.3
						c-1.4-1.4-2.3-3.4-3.4-5c-0.5-1.1-1.4-2.2-1.6-3.2c-0.4-2.5,1.3-4,3.8-4c2.3,0,0.2,0,0,0h12.4c0,0,0,0,0-0.2
						c-0.2-0.9-0.4-2-0.4-3.1H29.1L25.3,14h15.9l4.5,7.4c0,0-1.8,1.1-2.3,2.5c-1.1,3.2,0,5,0.2,5H30.9c-1.4,0-2.5,0.4-3.2,1.4
						c-0.2,0.2-0.2,0.5,0.5,0.7c2.7,0.4,5.8-0.9,8.6-0.5c2,0.4,3.8,0.9,5,2.3c1.3,1.6,2.3,3.6,3.4,5.4c0.5,0.9,1.1,1.8,1.1,2.9
						c-0.4,2.3-2.5,3.8-4.7,4.5c-0.7,0.4-1.4,0.5-2.2,0.7c1.8,1.4,3.8,2.5,6.3,2.9c0.5,0.2,1.1,0.2,1.6,0.2c3.6,0,6.7-2,7.6-5.2
						c1.1-4-0.5-7.9-2.2-11.5c-0.2-0.4-0.4-0.5-0.4-0.9c-0.9-2.2-1.8-4.5-2.3-6.7c-0.7-2.2-1.3-4.7-1.3-7.2c0.2-2.3,1.1-4.1,2.5-5.2
						c0.7-0.5,1.4-0.7,2.2-0.7c0.2,0,0.4,0,0.4,0c-3.4-3.6-7.7-5.9-12.6-7.4c0.4,0.5,0.7,1.1,0.9,1.6c0.4,0.7,0.9,1.6,0.4,2.3
						c-0.7,0.9-1.6,1.1-2.5,1.4c-0.5,0.2-0.9,0.4-1.3,0.7c-0.4,0.4-0.4,0.9-0.4,1.3c0-0.2-0.5-0.9-0.5-0.9C37.3,10.4,37,9.7,36.6,9
						c-0.5-0.7-0.9-1.4-1.3-2.2c-0.2-0.2-0.5-0.7-0.5-0.9C35,5,35,4.7,35.9,4.1c0.4-0.2,0.9-0.4,1.3-0.5c-0.9-0.2-1.8-0.2-2.7-0.2
						C19.3,3.4,7.1,15.7,7.1,30.8C6.9,45.9,19.1,58.4,34.3,58.4c5.4,0,10.3-1.4,14.6-4.1C47.6,54.9,47.1,54.8,46.5,54.6z"/>
					
						<linearGradient id="SVGID_00000181072486058499491200000000475955450471660448_" gradientUnits="userSpaceOnUse" x1="56.1383" y1="-20.8768" x2="56.1383" y2="23.1405" gradientTransform="matrix(1 0 0 1 0 31.3357)">
						<stop  offset="0" style="stop-color:#2D368F"/>
						<stop  offset="1" style="stop-color:#00A79C"/>
					</linearGradient>
					<path style="fill:url(#SVGID_00000181072486058499491200000000475955450471660448_);" d="M57.2,17.8c-0.4-0.2-0.9-0.4-1.3-0.4
						c-1.1,0-2,0.4-2.7,1.1c-1.8,1.8-2,4.3-1.8,6.3c0.5,4.9,2.5,9.5,4.3,13.7c0.9,2,1.6,4.1,2,5.9c2-4,3.2-8.3,3.2-13
						C60.9,26.7,59.7,21.8,57.2,17.8z"/>
				</g>
			</g>
		</g>
		<g>
			<g>
				<path id="SVGID_3_" class="st2" d="M60.6,18.9v0.2h0.7v1.8h0.4v-1.8h0.7v-0.4h-1.8V18.9z M64.2,18.9l-0.5,1.4c0,0.2,0,0.4,0,0.4
					c0-0.2-0.2-0.2-0.2-0.4l-0.5-1.4h-0.4v2h0.4v-1.8l0.5,1.8h0.4l0.7-1.8v1.8h0.4v-2H64.2L64.2,18.9z"/>
			</g>
			<g>
				<g>
					<defs>
						<path id="SVGID_00000083070315095544768990000014403082801945181837_" d="M60.6,18.9v0.2h0.7v1.8h0.4v-1.8h0.7v-0.4h-1.8V18.9
							z M64.2,18.9l-0.5,1.4c0,0.2,0,0.4,0,0.4c0-0.2-0.2-0.2-0.2-0.4l-0.5-1.4h-0.4v2h0.4v-1.8l0.5,1.8h0.4l0.7-1.8v1.8h0.4v-2
							H64.2L64.2,18.9z"/>
					</defs>
					<clipPath id="SVGID_00000042728070460533749570000007491197805648977311_">
						<use xlink:href="#SVGID_00000083070315095544768990000014403082801945181837_"  style="overflow:visible;"/>
					</clipPath>
					
						<rect x="60.6" y="18.9" style="clip-path:url(#SVGID_00000042728070460533749570000007491197805648977311_);fill:#424143;" width="4" height="2"/>
				</g>
			</g>
		</g>
	</g>
	<g>
		<g>
			<g>
				<path id="Path_586" class="st4" d="M129.5,11.5c0-1.3,0.8-2,2.3-2s2.3,0.7,2.3,2c0,0.5-0.2,1.1-0.5,1.5
					c-0.5,0.3-1.1,0.6-1.7,0.5C130.2,13.6,129.5,13,129.5,11.5"/>
				<rect id="Rectangle_632" x="84.7" y="10.8" class="st4" width="4.2" height="19.9"/>
				<path id="Path_587" class="st4" d="M107.7,30.7h-4.1v-9c0.1-0.9-0.2-1.7-0.6-2.4c-0.5-0.6-1.1-0.9-1.8-0.8
					c-0.9-0.1-2,0.3-2.6,1.1c-0.6,1.2-0.9,2.6-0.8,3.8v7.2h-4.1V15.4h3.2l0.5,2h0.3c0.5-0.7,1.1-1.3,2-1.7c0.9-0.3,1.8-0.6,2.8-0.5
					c1.5-0.1,3,0.5,4,1.4c0.9,1.1,1.5,2.6,1.4,4.1L107.7,30.7z"/>
				<path id="Path_588" class="st4" d="M116.8,31c-1.7,0.1-3.2-0.7-4.2-2.1c-1.1-1.4-1.5-3.4-1.5-5.8s0.5-4.4,1.5-5.9
					c0.9-1.4,2.6-2.2,4.3-2.1c1.7-0.1,3.4,0.8,4.4,2.2h0.2c-0.2-0.9-0.3-2-0.3-3.1V9.6h4.2v21.2h-3.2l-0.9-2h-0.2
					C120.2,30.2,118.6,31.1,116.8,31 M118.2,27.7c0.9,0.1,1.7-0.3,2.4-0.9c0.6-0.9,0.9-2,0.8-3.2v-0.5c0.1-1.2-0.2-2.4-0.8-3.5
					c-0.6-0.8-1.5-1.1-2.4-1.1c-0.9,0-1.7,0.5-2.2,1.1c-0.6,1.1-0.9,2.2-0.8,3.4c-0.1,1.1,0.2,2.4,0.8,3.4
					C116.5,27.3,117.4,27.8,118.2,27.7"/>
				<rect id="Rectangle_633" x="129.6" y="15.4" class="st4" width="4.1" height="15.3"/>
				<path id="Path_589" class="st4" d="M147.8,30.7l-0.8-2.1h-0.1c-0.5,0.8-1.3,1.4-2.2,1.8c-0.9,0.3-2,0.5-2.9,0.5
					c-1.3,0.1-2.6-0.3-3.4-1.2c-0.9-0.9-1.3-2.3-1.2-3.6c-0.1-1.4,0.5-2.8,1.7-3.6c1.1-0.8,2.8-1.2,5.1-1.3l2.6-0.1v-0.7
					c0-1.5-0.8-2.3-2.4-2.3c-1.5,0.1-3,0.5-4.3,1.1l-1.3-2.8c1.8-0.9,3.8-1.4,5.8-1.4c1.7-0.1,3.4,0.3,4.7,1.3
					c1.1,1.1,1.7,2.6,1.7,4v10.2L147.8,30.7C147.8,30.7,147.8,30.7,147.8,30.7z M146.6,23.7l-1.5,0.1c-0.9,0-1.8,0.2-2.7,0.6
					c-0.7,0.5-1,1.1-0.9,1.8c0,1.1,0.7,1.7,2,1.7c0.9,0,1.7-0.3,2.3-0.8c0.6-0.6,0.9-1.4,0.9-2.2V23.7z"/>
				<path id="Path_590" class="st4" d="M157.9,30.7h-2.3V10.8h11.2v2H158v7.3h8.3v2H158v8.6H157.9z"/>
				<path id="Path_591" class="st4" d="M182.5,23.2c0,2.4-0.6,4.3-1.8,5.7c-1.3,1.4-3.2,2.2-5.1,2c-1.2,0-2.4-0.3-3.6-0.9
					c-1.1-0.6-1.8-1.5-2.4-2.7c-0.6-1.3-0.9-2.7-0.9-4.1c0-2.4,0.6-4.3,1.8-5.7c1.3-1.4,3.2-2.1,5.1-2c2-0.1,3.7,0.7,5,2.1
					C182,19.2,182.6,21.2,182.5,23.2 M171.1,23.2c-0.1,1.5,0.3,3.1,1.1,4.4c1.7,1.8,4.6,2,6.4,0.3c0.1-0.1,0.2-0.2,0.3-0.3
					c0.9-1.3,1.2-2.8,1.1-4.4c0.1-1.5-0.3-3.1-1.1-4.3c-0.8-1.1-2.1-1.5-3.4-1.5c-1.3-0.1-2.6,0.5-3.4,1.5
					C171.5,20.2,171.1,21.7,171.1,23.2"/>
				<path id="Path_592" class="st4" d="M196.7,30.7v-9.6c0.1-0.9-0.3-2-0.8-2.7c-0.7-0.6-1.7-0.9-2.6-0.9c-1.3-0.1-2.6,0.3-3.4,1.2
					c-0.7,0.9-1.1,2.3-1.1,4.2v7.8h-2.3V15.9h1.8l0.3,2h0.1c0.5-0.7,1.1-1.3,2-1.7c0.9-0.5,1.8-0.6,2.8-0.6c1.5-0.1,2.9,0.3,4,1.3
					c0.9,0.9,1.4,2.3,1.4,4.1v9.8C199,30.7,196.7,30.7,196.7,30.7z"/>
				<path id="Path_593" class="st4" d="M208.5,29.2c0.3,0,0.8,0,1.1-0.1c0.3,0,0.6-0.1,0.9-0.2v1.7c-0.3,0.2-0.7,0.3-1.1,0.3
					c-0.5,0.1-0.9,0.1-1.3,0.1c-2.9,0-4.3-1.5-4.3-4.6v-8.8h-2.1v-1.1l2.1-0.9l0.9-3.2h1.3v3.4h4.3v1.7h-4.3v8.7
					c-0.1,0.8,0.2,1.5,0.6,2.1C207.2,28.9,207.8,29.2,208.5,29.2"/>
			</g>
			<g>
				<path class="st5" d="M246.5,12.2h-26.7l0,0c-1.4,0-2.4,1.1-2.4,2.4v13.9l0,0c0,1.4,1.1,2.4,2.4,2.4h26.7c1.4,0,2.4-1.1,2.4-2.4
					V14.7C248.9,13.3,247.8,12.2,246.5,12.2z"/>
				<g>
					<g>
						<path class="st6" d="M223.4,27.7l-4.2-11.9h4.1l2.4,8h0.1l2.4-8h4l-4.2,11.9C227.8,27.7,223.4,27.7,223.4,27.7z"/>
						<path class="st6" d="M231.2,27.7v-3.4h3.7v3.4H231.2z"/>
						<path class="st6" d="M242.3,17.7c-0.5,0.9-1.1,1.7-1.7,2.7c-0.6,0.9-1.2,1.7-1.8,2.2h3.4v-2.4c0.3-0.5,0.7-1.1,1.1-1.8
							c0.3-0.7,0.6-1.2,0.7-1.7h1.5v6.1h1.7v2.6h-1.7v2.4h-3.2v-2.4h-5.8v-2.6c0.6-0.9,1.2-2,1.8-3.2c0.6-1.3,1.1-2.6,1.5-3.8h3.4
							C242.9,16.2,242.7,16.9,242.3,17.7z"/>
					</g>
				</g>
			</g>
		</g>
		<g>
			<path d="M92.3,38.8v7.4h-1v-5.5l-2.4,5.5h-0.7l-2.5-5.5v5.5h-1v-7.4h1l2.7,6.1l2.7-6.1H92.3z"/>
			<path d="M95,45.9c-0.4-0.2-0.8-0.6-1-1.1s-0.4-1-0.4-1.6c0-0.6,0.1-1.1,0.4-1.6c0.3-0.5,0.6-0.8,1.1-1.1c0.4-0.2,0.9-0.4,1.5-0.4
				s1.1,0.1,1.5,0.4c0.4,0.2,0.8,0.6,1.1,1c0.3,0.5,0.4,1,0.4,1.6c0,0.6-0.1,1.1-0.4,1.6c-0.3,0.5-0.6,0.8-1.1,1.1
				c-0.5,0.2-1,0.4-1.5,0.4C96,46.3,95.5,46.1,95,45.9z M97.5,45.2c0.3-0.2,0.6-0.4,0.7-0.7s0.3-0.7,0.3-1.2c0-0.5-0.1-0.9-0.3-1.2
				c-0.2-0.3-0.4-0.6-0.7-0.7s-0.6-0.2-1-0.2c-0.4,0-0.7,0.1-1,0.2c-0.3,0.2-0.5,0.4-0.7,0.7c-0.2,0.3-0.3,0.7-0.3,1.2
				c0,0.5,0.1,0.9,0.3,1.2s0.4,0.6,0.7,0.7c0.3,0.2,0.6,0.2,1,0.2S97.2,45.3,97.5,45.2z"/>
			<path d="M101.6,46c-0.4-0.2-0.6-0.4-0.8-0.6c-0.2-0.3-0.3-0.6-0.3-0.9h1c0,0.3,0.2,0.5,0.4,0.7c0.2,0.2,0.6,0.3,1,0.3
				c0.4,0,0.7-0.1,0.9-0.2c0.2-0.2,0.3-0.4,0.3-0.6c0-0.3-0.1-0.4-0.3-0.6c-0.2-0.1-0.6-0.2-1.1-0.4c-0.4-0.1-0.8-0.2-1.1-0.3
				s-0.5-0.3-0.7-0.5c-0.2-0.2-0.3-0.5-0.3-0.9c0-0.3,0.1-0.6,0.3-0.8s0.4-0.4,0.8-0.6c0.3-0.1,0.7-0.2,1.1-0.2
				c0.6,0,1.2,0.2,1.6,0.5c0.4,0.3,0.6,0.8,0.6,1.3h-1c0-0.3-0.1-0.5-0.4-0.7c-0.2-0.2-0.5-0.3-0.9-0.3c-0.3,0-0.6,0.1-0.8,0.2
				c-0.2,0.1-0.3,0.3-0.3,0.6c0,0.2,0.1,0.3,0.2,0.5c0.1,0.1,0.3,0.2,0.5,0.3c0.2,0.1,0.4,0.2,0.8,0.3c0.4,0.1,0.8,0.2,1,0.3
				c0.3,0.1,0.5,0.3,0.7,0.5c0.2,0.2,0.3,0.5,0.3,0.9c0,0.3-0.1,0.6-0.3,0.9c-0.2,0.3-0.4,0.5-0.8,0.6s-0.7,0.2-1.1,0.2
				C102.4,46.3,102,46.2,101.6,46z"/>
			<path d="M107.5,41.1v3.4c0,0.3,0.1,0.5,0.2,0.6c0.1,0.1,0.3,0.2,0.6,0.2h0.7v0.8h-0.9c-0.5,0-0.9-0.1-1.2-0.4s-0.4-0.7-0.4-1.2
				v-3.4h-0.8v-0.8h0.8v-1.5h1v1.5h1.5v0.8H107.5z"/>
			<path d="M114,38.3v7.9h-1v-7.9H114z"/>
			<path d="M116.7,45.9c-0.4-0.2-0.8-0.6-1-1.1s-0.4-1-0.4-1.6c0-0.6,0.1-1.1,0.4-1.6c0.3-0.5,0.6-0.8,1.1-1.1
				c0.4-0.2,0.9-0.4,1.5-0.4s1.1,0.1,1.5,0.4c0.4,0.2,0.8,0.6,1.1,1c0.3,0.5,0.4,1,0.4,1.6c0,0.6-0.1,1.1-0.4,1.6
				c-0.3,0.5-0.6,0.8-1.1,1.1c-0.5,0.2-1,0.4-1.5,0.4C117.7,46.3,117.2,46.1,116.7,45.9z M119.2,45.2c0.3-0.2,0.6-0.4,0.7-0.7
				s0.3-0.7,0.3-1.2c0-0.5-0.1-0.9-0.3-1.2c-0.2-0.3-0.4-0.6-0.7-0.7s-0.6-0.2-1-0.2c-0.4,0-0.7,0.1-1,0.2c-0.3,0.2-0.5,0.4-0.7,0.7
				c-0.2,0.3-0.3,0.7-0.3,1.2c0,0.5,0.1,0.9,0.3,1.2s0.4,0.6,0.7,0.7c0.3,0.2,0.6,0.2,1,0.2S118.9,45.3,119.2,45.2z"/>
			<path d="M124.7,45.3l1.8-4.9h1l-2.3,5.8h-1.1l-2.3-5.8h1L124.7,45.3z"/>
			<path d="M133.8,43.6h-4.7c0,0.6,0.2,1,0.6,1.3c0.4,0.3,0.8,0.5,1.3,0.5c0.4,0,0.8-0.1,1-0.3s0.5-0.5,0.6-0.8h1
				c-0.2,0.6-0.5,1-0.9,1.4c-0.5,0.4-1.1,0.5-1.7,0.5c-0.6,0-1-0.1-1.5-0.4s-0.8-0.6-1-1.1c-0.2-0.5-0.4-1-0.4-1.6
				c0-0.6,0.1-1.1,0.4-1.6c0.2-0.5,0.6-0.8,1-1c0.4-0.2,0.9-0.4,1.5-0.4c0.6,0,1,0.1,1.5,0.4c0.4,0.2,0.8,0.6,1,1
				c0.2,0.4,0.3,0.9,0.3,1.4C133.8,43.2,133.8,43.4,133.8,43.6z M132.5,41.9c-0.2-0.3-0.4-0.5-0.7-0.6c-0.3-0.1-0.6-0.2-0.9-0.2
				c-0.5,0-0.9,0.2-1.3,0.5s-0.5,0.7-0.6,1.3h3.7C132.8,42.4,132.7,42.1,132.5,41.9z"/>
			<path d="M135.1,41.7c0.2-0.5,0.6-0.8,1-1c0.4-0.2,0.9-0.4,1.4-0.4c0.5,0,0.9,0.1,1.3,0.3c0.4,0.2,0.7,0.5,0.9,0.8v-3.1h1v7.9h-1
				v-1.1c-0.2,0.3-0.5,0.6-0.9,0.9c-0.4,0.2-0.8,0.3-1.3,0.3c-0.5,0-1-0.1-1.4-0.4c-0.4-0.3-0.8-0.6-1-1.1c-0.2-0.5-0.4-1-0.4-1.6
				C134.7,42.6,134.8,42.1,135.1,41.7z M139.4,42.1c-0.2-0.3-0.4-0.6-0.7-0.8c-0.3-0.2-0.6-0.3-1-0.3c-0.4,0-0.7,0.1-1,0.3
				c-0.3,0.2-0.5,0.4-0.7,0.7c-0.2,0.3-0.3,0.7-0.3,1.2c0,0.4,0.1,0.8,0.3,1.2c0.2,0.3,0.4,0.6,0.7,0.8c0.3,0.2,0.6,0.3,1,0.3
				c0.4,0,0.7-0.1,1-0.3c0.3-0.2,0.5-0.4,0.7-0.8s0.3-0.7,0.3-1.2C139.6,42.8,139.6,42.4,139.4,42.1z"/>
			<path d="M145.2,40.5c0.3-0.6,0.8-1,1.3-1.4c0.6-0.3,1.2-0.5,1.9-0.5c0.8,0,1.5,0.2,2.1,0.6s1,0.9,1.3,1.7h-1.2
				c-0.2-0.4-0.5-0.8-0.9-1c-0.4-0.2-0.9-0.4-1.4-0.4c-0.5,0-1,0.1-1.4,0.4c-0.4,0.2-0.7,0.6-1,1c-0.2,0.4-0.4,1-0.4,1.6
				c0,0.6,0.1,1.1,0.4,1.5s0.6,0.8,1,1c0.4,0.2,0.9,0.4,1.4,0.4c0.5,0,1-0.1,1.4-0.4c0.4-0.2,0.7-0.6,0.9-1h1.2
				c-0.3,0.7-0.7,1.3-1.3,1.6c-0.6,0.4-1.3,0.6-2.1,0.6c-0.7,0-1.3-0.2-1.9-0.5c-0.6-0.3-1-0.8-1.3-1.3c-0.3-0.6-0.5-1.2-0.5-1.9
				S144.9,41.1,145.2,40.5z"/>
			<path d="M153.3,41.7c0.2-0.5,0.6-0.8,1-1c0.4-0.2,0.9-0.4,1.4-0.4c0.5,0,1,0.1,1.3,0.3c0.4,0.2,0.7,0.5,0.8,0.8v-1.1h1v5.8h-1
				v-1.1c-0.2,0.3-0.5,0.6-0.9,0.8s-0.8,0.3-1.3,0.3c-0.5,0-1-0.1-1.4-0.4c-0.4-0.3-0.7-0.6-1-1.1c-0.2-0.5-0.4-1-0.4-1.6
				C153,42.6,153.1,42.1,153.3,41.7z M157.6,42.1c-0.2-0.3-0.4-0.6-0.7-0.8c-0.3-0.2-0.6-0.3-1-0.3c-0.4,0-0.7,0.1-1,0.3
				c-0.3,0.2-0.5,0.4-0.7,0.7c-0.2,0.3-0.3,0.7-0.3,1.2c0,0.4,0.1,0.8,0.3,1.2c0.2,0.3,0.4,0.6,0.7,0.8c0.3,0.2,0.6,0.3,1,0.3
				c0.4,0,0.7-0.1,1-0.3c0.3-0.2,0.5-0.4,0.7-0.8s0.3-0.7,0.3-1.2C157.9,42.8,157.8,42.4,157.6,42.1z"/>
			<path d="M161.5,38.3v7.9h-1v-7.9H161.5z"/>
			<path d="M164.1,38.3v7.9h-1v-7.9H164.1z"/>
			<path d="M165.8,39.2c-0.1-0.1-0.2-0.3-0.2-0.5s0.1-0.3,0.2-0.5c0.1-0.1,0.3-0.2,0.5-0.2c0.2,0,0.3,0.1,0.5,0.2
				c0.1,0.1,0.2,0.3,0.2,0.5s-0.1,0.3-0.2,0.5c-0.1,0.1-0.3,0.2-0.5,0.2C166.1,39.4,165.9,39.3,165.8,39.2z M166.7,40.3v5.8h-1v-5.8
				H166.7z"/>
			<path d="M172.1,40.6c0.4,0.2,0.7,0.5,0.8,0.8v-1.1h1v6c0,0.5-0.1,1-0.3,1.4c-0.2,0.4-0.6,0.7-1,1c-0.4,0.2-0.9,0.4-1.5,0.4
				c-0.8,0-1.4-0.2-1.9-0.5c-0.5-0.4-0.8-0.9-0.9-1.5h1c0.1,0.4,0.3,0.6,0.7,0.9c0.3,0.2,0.7,0.3,1.2,0.3c0.5,0,1-0.2,1.3-0.5
				c0.3-0.3,0.5-0.8,0.5-1.4v-1.2c-0.2,0.3-0.5,0.6-0.9,0.9c-0.4,0.2-0.8,0.3-1.3,0.3c-0.5,0-1-0.1-1.4-0.4c-0.4-0.3-0.8-0.6-1-1.1
				c-0.2-0.5-0.4-1-0.4-1.6c0-0.6,0.1-1.1,0.4-1.6c0.2-0.5,0.6-0.8,1-1c0.4-0.2,0.9-0.4,1.4-0.4C171.3,40.2,171.7,40.3,172.1,40.6z
				 M172.7,42.1c-0.2-0.3-0.4-0.6-0.7-0.8c-0.3-0.2-0.6-0.3-1-0.3c-0.4,0-0.7,0.1-1,0.3c-0.3,0.2-0.5,0.4-0.7,0.7
				c-0.2,0.3-0.3,0.7-0.3,1.2c0,0.4,0.1,0.8,0.3,1.2c0.2,0.3,0.4,0.6,0.7,0.8c0.3,0.2,0.6,0.3,1,0.3c0.4,0,0.7-0.1,1-0.3
				c0.3-0.2,0.5-0.4,0.7-0.8s0.3-0.7,0.3-1.2C173,42.8,172.9,42.4,172.7,42.1z"/>
			<path d="M177.3,40.5c0.3-0.2,0.7-0.3,1.2-0.3v1h-0.3c-1.1,0-1.6,0.6-1.6,1.8v3.2h-1v-5.8h1v0.9C176.7,40.9,177,40.7,177.3,40.5z"
				/>
			<path d="M179.6,41.7c0.2-0.5,0.6-0.8,1-1c0.4-0.2,0.9-0.4,1.4-0.4c0.5,0,1,0.1,1.3,0.3c0.4,0.2,0.7,0.5,0.8,0.8v-1.1h1v5.8h-1
				v-1.1c-0.2,0.3-0.5,0.6-0.9,0.8s-0.8,0.3-1.3,0.3c-0.5,0-1-0.1-1.4-0.4c-0.4-0.3-0.7-0.6-1-1.1c-0.2-0.5-0.4-1-0.4-1.6
				C179.2,42.6,179.3,42.1,179.6,41.7z M183.9,42.1c-0.2-0.3-0.4-0.6-0.7-0.8c-0.3-0.2-0.6-0.3-1-0.3c-0.4,0-0.7,0.1-1,0.3
				c-0.3,0.2-0.5,0.4-0.7,0.7c-0.2,0.3-0.3,0.7-0.3,1.2c0,0.4,0.1,0.8,0.3,1.2c0.2,0.3,0.4,0.6,0.7,0.8c0.3,0.2,0.6,0.3,1,0.3
				c0.4,0,0.7-0.1,1-0.3c0.3-0.2,0.5-0.4,0.7-0.8s0.3-0.7,0.3-1.2C184.1,42.8,184,42.4,183.9,42.1z"/>
			<path d="M188.6,40.6c0.4-0.2,0.8-0.3,1.3-0.3c0.5,0,1,0.1,1.4,0.4c0.4,0.2,0.8,0.6,1,1c0.2,0.5,0.4,1,0.4,1.6
				c0,0.6-0.1,1.1-0.4,1.6c-0.2,0.5-0.6,0.8-1,1.1c-0.4,0.3-0.9,0.4-1.4,0.4c-0.5,0-0.9-0.1-1.3-0.3s-0.7-0.5-0.9-0.8v3.8h-1v-8.6h1
				v1.1C187.9,41.1,188.2,40.8,188.6,40.6z M191.4,42.1c-0.2-0.3-0.4-0.6-0.7-0.7s-0.6-0.3-1-0.3c-0.4,0-0.7,0.1-1,0.3
				c-0.3,0.2-0.5,0.4-0.7,0.8s-0.3,0.7-0.3,1.1c0,0.4,0.1,0.8,0.3,1.2s0.4,0.6,0.7,0.8c0.3,0.2,0.6,0.3,1,0.3c0.4,0,0.7-0.1,1-0.3
				c0.3-0.2,0.5-0.4,0.7-0.8s0.3-0.7,0.3-1.2C191.7,42.8,191.6,42.4,191.4,42.1z"/>
			<path d="M199,40.3l-3.5,8.6h-1l1.2-2.8l-2.4-5.8h1.1l1.8,4.7l1.8-4.7H199z"/>
			<path d="M203.8,46c-0.4-0.2-0.7-0.4-0.9-0.7c-0.2-0.3-0.3-0.7-0.3-1.1h1c0,0.3,0.2,0.6,0.4,0.9s0.6,0.4,1.1,0.4
				c0.5,0,0.8-0.1,1.1-0.3c0.3-0.2,0.4-0.5,0.4-0.9c0-0.3-0.1-0.5-0.2-0.7c-0.2-0.2-0.4-0.3-0.6-0.4s-0.6-0.2-0.9-0.3
				c-0.5-0.1-0.9-0.3-1.2-0.4s-0.5-0.3-0.8-0.6c-0.2-0.3-0.3-0.6-0.3-1.1c0-0.4,0.1-0.8,0.3-1.1s0.5-0.6,0.9-0.7
				c0.4-0.2,0.8-0.3,1.3-0.3c0.7,0,1.3,0.2,1.7,0.5c0.4,0.3,0.7,0.8,0.8,1.4h-1.1c0-0.3-0.2-0.5-0.4-0.8c-0.3-0.2-0.6-0.3-1-0.3
				c-0.4,0-0.7,0.1-1,0.3s-0.4,0.5-0.4,0.9c0,0.3,0.1,0.5,0.2,0.7c0.2,0.2,0.3,0.3,0.6,0.4c0.2,0.1,0.5,0.2,0.9,0.3
				c0.5,0.1,0.9,0.3,1.2,0.4c0.3,0.1,0.6,0.3,0.8,0.6c0.2,0.3,0.3,0.6,0.3,1.1c0,0.4-0.1,0.7-0.3,1s-0.5,0.6-0.9,0.8
				c-0.4,0.2-0.8,0.3-1.3,0.3C204.7,46.2,204.2,46.2,203.8,46z"/>
			<path d="M210.1,45.9c-0.4-0.2-0.8-0.6-1-1.1s-0.4-1-0.4-1.6c0-0.6,0.1-1.1,0.4-1.6c0.3-0.5,0.6-0.8,1.1-1.1
				c0.4-0.2,0.9-0.4,1.5-0.4s1.1,0.1,1.5,0.4c0.4,0.2,0.8,0.6,1.1,1c0.3,0.5,0.4,1,0.4,1.6c0,0.6-0.1,1.1-0.4,1.6
				c-0.3,0.5-0.6,0.8-1.1,1.1c-0.5,0.2-1,0.4-1.5,0.4C211,46.3,210.5,46.1,210.1,45.9z M212.6,45.2c0.3-0.2,0.6-0.4,0.7-0.7
				s0.3-0.7,0.3-1.2c0-0.5-0.1-0.9-0.3-1.2c-0.2-0.3-0.4-0.6-0.7-0.7s-0.6-0.2-1-0.2c-0.4,0-0.7,0.1-1,0.2c-0.3,0.2-0.5,0.4-0.7,0.7
				c-0.2,0.3-0.3,0.7-0.3,1.2c0,0.5,0.1,0.9,0.3,1.2s0.4,0.6,0.7,0.7c0.3,0.2,0.6,0.2,1,0.2S212.3,45.3,212.6,45.2z"/>
			<path d="M218.2,41.1H217v5h-1v-5h-0.8v-0.8h0.8v-0.4c0-0.7,0.2-1.1,0.5-1.4s0.9-0.5,1.6-0.5v0.8c-0.4,0-0.7,0.1-0.9,0.2
				c-0.2,0.2-0.3,0.4-0.3,0.8v0.4h1.2V41.1z"/>
			<path d="M220.5,41.1v3.4c0,0.3,0.1,0.5,0.2,0.6c0.1,0.1,0.3,0.2,0.6,0.2h0.7v0.8h-0.9c-0.5,0-0.9-0.1-1.2-0.4s-0.4-0.7-0.4-1.2
				v-3.4h-0.8v-0.8h0.8v-1.5h1v1.5h1.5v0.8H220.5z"/>
			<path d="M231,40.3l-1.8,5.8h-1l-1.4-4.6l-1.4,4.6h-1l-1.8-5.8h1l1.3,4.9l1.4-4.9h1l1.4,4.9l1.3-4.9H231z"/>
			<path d="M232,41.7c0.2-0.5,0.6-0.8,1-1c0.4-0.2,0.9-0.4,1.4-0.4c0.5,0,1,0.1,1.3,0.3c0.4,0.2,0.7,0.5,0.8,0.8v-1.1h1v5.8h-1v-1.1
				c-0.2,0.3-0.5,0.6-0.9,0.8s-0.8,0.3-1.3,0.3c-0.5,0-1-0.1-1.4-0.4c-0.4-0.3-0.7-0.6-1-1.1c-0.2-0.5-0.4-1-0.4-1.6
				C231.6,42.6,231.7,42.1,232,41.7z M236.3,42.1c-0.2-0.3-0.4-0.6-0.7-0.8c-0.3-0.2-0.6-0.3-1-0.3c-0.4,0-0.7,0.1-1,0.3
				c-0.3,0.2-0.5,0.4-0.7,0.7c-0.2,0.3-0.3,0.7-0.3,1.2c0,0.4,0.1,0.8,0.3,1.2c0.2,0.3,0.4,0.6,0.7,0.8c0.3,0.2,0.6,0.3,1,0.3
				c0.4,0,0.7-0.1,1-0.3c0.3-0.2,0.5-0.4,0.7-0.8s0.3-0.7,0.3-1.2C236.6,42.8,236.5,42.4,236.3,42.1z"/>
			<path d="M240.9,40.5c0.3-0.2,0.7-0.3,1.2-0.3v1h-0.3c-1.1,0-1.6,0.6-1.6,1.8v3.2h-1v-5.8h1v0.9C240.3,40.9,240.6,40.7,240.9,40.5
				z"/>
			<path d="M248.4,43.6h-4.7c0,0.6,0.2,1,0.6,1.3c0.4,0.3,0.8,0.5,1.3,0.5c0.4,0,0.8-0.1,1-0.3s0.5-0.5,0.6-0.8h1
				c-0.2,0.6-0.5,1-0.9,1.4c-0.5,0.4-1.1,0.5-1.7,0.5c-0.6,0-1-0.1-1.5-0.4s-0.8-0.6-1-1.1c-0.2-0.5-0.4-1-0.4-1.6
				c0-0.6,0.1-1.1,0.4-1.6c0.2-0.5,0.6-0.8,1-1c0.4-0.2,0.9-0.4,1.5-0.4c0.6,0,1,0.1,1.5,0.4c0.4,0.2,0.8,0.6,1,1
				c0.2,0.4,0.3,0.9,0.3,1.4C248.5,43.2,248.5,43.4,248.4,43.6z M247.2,41.9c-0.2-0.3-0.4-0.5-0.7-0.6c-0.3-0.1-0.6-0.2-0.9-0.2
				c-0.5,0-0.9,0.2-1.3,0.5s-0.5,0.7-0.6,1.3h3.7C247.5,42.4,247.4,42.1,247.2,41.9z"/>
		</g>
	</g>
</g>
</svg>
