<?xml version="1.0" encoding="utf-8"?>
<!-- Generator: Adobe Illustrator 22.1.0, SVG Export Plug-In . SVG Version: 6.00 Build 0)  -->
<svg version="1.1" id="Layer_1" xmlns="http://www.w3.org/2000/svg" xmlns:xlink="http://www.w3.org/1999/xlink" x="0px" y="0px"
	 width="30px" height="30px" viewBox="0 0 30 30" style="enable-background:new 0 0 30 30;" xml:space="preserve">
<g>
	<g>
		<path d="M21.1,9.3L21,9.2c-0.2-0.2-0.5-0.2-0.7,0l-2.6,2.6c-1.1-0.3-2.2-0.5-3.4-0.5c-2.1,0-4.1,0.5-5.9,1.5c0,0,0,0,0,0
			c0,0,0,0,0,0c0,0,0,0,0,0c0,0,0,0,0,0c-1.3,0.7-2.6,1.7-3.6,2.9c-0.3,0.3-0.3,0.8,0,1.1c1.2,1.5,2.8,2.6,4.5,3.3l-1.7,1.7
			c-0.2,0.2-0.2,0.5,0,0.7l0.1,0.1c0.2,0.2,0.5,0.2,0.7,0L21.1,10C21.3,9.8,21.3,9.5,21.1,9.3z M9.6,15c0-0.1,1.1-2.1,4.6-2.2
			c0.4,0,0.7,0.3,0.7,0.7c0,0.4-0.3,0.7-0.7,0.7c-2.6,0.1-3.3,1.4-3.4,1.4c-0.1,0.2-0.4,0.4-0.6,0.4c-0.1,0-0.2,0-0.3-0.1
			C9.6,15.8,9.5,15.4,9.6,15z M6.6,16.3c0.5-0.5,1.1-1,1.6-1.4c0,0,0,0.1,0,0.1c0.1,0.3,0.2,0.5,0.3,0.7c0,0,0,0,0,0
			c0.1,0.2,0.3,0.5,0.5,0.7c0,0,0.1,0.1,0.1,0.1c0.2,0.2,0.3,0.4,0.5,0.6c0,0,0.1,0.1,0.1,0.1c0.2,0.2,0.4,0.4,0.6,0.5
			c0,0,0,0,0.1,0c0.2,0.1,0.4,0.3,0.7,0.4c0,0,0,0,0,0l-0.6,0.6C9.1,18.3,7.7,17.5,6.6,16.3z"/>
	</g>
	<g>
		<path d="M23.7,15.8c-1.1-1.3-2.4-2.3-3.8-3l-6.2,6.2c0.1,0,0.2,0,0.3,0c0.3,0,0.6,0,0.9-0.1c0,0,0.1,0,0.1,0
			c0.3,0,0.6-0.1,0.8-0.2c0.1,0,0.1,0,0.2-0.1c0.3-0.1,0.5-0.2,0.8-0.3c0,0,0.1,0,0.1-0.1c0.2-0.1,0.5-0.3,0.7-0.4c0,0,0,0,0,0
			c0.2-0.2,0.4-0.4,0.6-0.6c0,0,0.1-0.1,0.1-0.1c0.2-0.2,0.4-0.4,0.5-0.6c0,0,0.1-0.1,0.1-0.1c0.2-0.2,0.3-0.5,0.4-0.7
			c0,0,0,0,0-0.1c0.1-0.3,0.2-0.5,0.3-0.8c0,0,0,0,0-0.1c0.7,0.5,1.4,1,2.1,1.7c-2,2.1-4.7,3.2-7.6,3.2c-0.4,0-0.8,0-1.2-0.1
			L11.6,21c0.9,0.2,1.8,0.3,2.7,0.3c3.7,0,7.1-1.6,9.5-4.4C23.9,16.5,23.9,16.1,23.7,15.8z"/>
	</g>
</g>
</svg>
