<?xml version="1.0" encoding="utf-8"?>
<!-- Generator: Adobe Illustrator 22.1.0, SVG Export Plug-In . SVG Version: 6.00 Build 0)  -->
<svg version="1.1" id="Layer_1" xmlns="http://www.w3.org/2000/svg" xmlns:xlink="http://www.w3.org/1999/xlink" x="0px" y="0px"
	 width="144px" height="144px" viewBox="0 0 144 144" style="enable-background:new 0 0 144 144;" xml:space="preserve">
<style type="text/css">
	.st0{fill:#afafaf;}
</style>
<g>
	<path class="st0" d="M70.3,75.2c0,0,0-0.1,0-0.1c0-4.6,3.7-8.3,8.3-8.3v-4.2H59.5v19.1h0.2l8.5-8.5L70.3,75.2z"/>
	<path class="st0" d="M78.6,69.1c-3.3,0-5.9,2.7-5.9,5.9c0,1.6,0.7,3.1,1.7,4.2l0,0c1.1,1.1,2.6,1.7,4.2,1.7c3.3,0,5.9-2.7,5.9-5.9
		C84.5,71.8,81.8,69.1,78.6,69.1z"/>
	<polygon class="st0" points="68.2,75.9 62.6,81.6 73.5,81.6 73.9,81.6 71.3,79 	"/>
</g>
</svg>
