<?xml version="1.0" encoding="utf-8"?>
<!-- Generator: Adobe Illustrator 27.8.0, SVG Export Plug-In . SVG Version: 6.00 Build 0)  -->
<svg version="1.1" id="Layer_1" xmlns="http://www.w3.org/2000/svg" xmlns:xlink="http://www.w3.org/1999/xlink" x="0px" y="0px"
	 viewBox="0 0 24 24" style="enable-background:new 0 0 24 24;" xml:space="preserve">
<style type="text/css">
	.st0{fill:#2E3138;}
</style>
<path class="st0" d="M9,18c-0.6,0-1-0.2-1.4-0.6S7,16.5,7,16V4c0-0.5,0.2-1,0.6-1.4S8.4,2,9,2h9c0.6,0,1,0.2,1.4,0.6S20,3.4,20,4v12
	c0,0.5-0.2,1-0.6,1.4S18.6,18,18,18H9z M9,16h9V4H9V16z M5,22c-0.5,0-1-0.2-1.4-0.6S3,20.5,3,20V6h2v14h11v2H5z M9,16V4V16z"/>
</svg>
