<?xml version="1.0" encoding="utf-8"?>
<!-- Generator: Adobe Illustrator 27.8.0, SVG Export Plug-In . SVG Version: 6.00 Build 0)  -->
<svg version="1.1" id="Layer_1" xmlns="http://www.w3.org/2000/svg" xmlns:xlink="http://www.w3.org/1999/xlink" x="0px" y="0px"
	 viewBox="0 0 24 24" style="enable-background:new 0 0 24 24;" xml:space="preserve">
<style type="text/css">
	.st0{fill:#2E3138;}
</style>
<path class="st0" d="M8,18c-0.5,0-1-0.2-1.4-0.6C6.2,17,6,16.5,6,16v-2h2v2h12V6H8v2H6V4c0-0.5,0.2-1,0.6-1.4C7,2.2,7.5,2,8,2h12
	c0.6,0,1,0.2,1.4,0.6S22,3.4,22,4v12c0,0.5-0.2,1-0.6,1.4S20.6,18,20,18H8z M4,22c-0.5,0-1-0.2-1.4-0.6S2,20.5,2,20V6h2v14h14v2H4z
	 M13,15l-1.4-1.4l1.6-1.6H6v-2h7.2l-1.6-1.6L13,7l4,4L13,15z"/>
</svg>
