<?xml version="1.0" encoding="utf-8"?>
<!-- Generator: Adobe Illustrator 27.8.0, SVG Export Plug-In . SVG Version: 6.00 Build 0)  -->
<svg version="1.1" id="Layer_1" xmlns="http://www.w3.org/2000/svg" xmlns:xlink="http://www.w3.org/1999/xlink" x="0px" y="0px"
	 viewBox="0 0 24 24" style="enable-background:new 0 0 24 24;" xml:space="preserve">
<style type="text/css">
	.st0{fill:#2E3138;}
</style>
<path class="st0" d="M19,21l-7-7l-2.3,2.4c0.1,0.2,0.2,0.5,0.3,0.8C10,17.4,10,17.7,10,18c0,1.1-0.4,2-1.2,2.8C8,21.6,7.1,22,6,22
	s-2-0.4-2.8-1.2C2.4,20,2,19.1,2,18s0.4-2,1.2-2.8C4,14.4,4.9,14,6,14c0.3,0,0.6,0,0.8,0.1c0.3,0.1,0.6,0.1,0.8,0.3L10,12L7.7,9.6
	C7.4,9.8,7.1,9.9,6.8,9.9C6.6,10,6.3,10,6,10c-1.1,0-2-0.4-2.8-1.2S2,7.1,2,6s0.4-2,1.2-2.8S4.9,2,6,2s2,0.4,2.8,1.2
	C9.6,4,10,4.9,10,6c0,0.3,0,0.6-0.1,0.9S9.8,7.4,9.7,7.6L22,20v1H19z M15,11l-2-2l6-6h3v1L15,11z M6,8c0.6,0,1-0.2,1.4-0.6
	C7.8,7,8,6.5,8,6S7.8,5,7.4,4.6C7,4.2,6.6,4,6,4S5,4.2,4.6,4.6C4.2,5,4,5.4,4,6s0.2,1,0.6,1.4C5,7.8,5.5,8,6,8z M12,12.5
	c0.1,0,0.2-0.1,0.4-0.2c0.1-0.1,0.1-0.2,0.1-0.3c0-0.1-0.1-0.2-0.1-0.4c-0.1-0.1-0.2-0.1-0.4-0.1c-0.1,0-0.2,0.1-0.3,0.1
	c-0.1,0.1-0.2,0.2-0.2,0.4c0,0.1,0.1,0.2,0.2,0.3C11.8,12.4,11.9,12.5,12,12.5z M6,20c0.6,0,1-0.2,1.4-0.6S8,18.5,8,18
	s-0.2-1-0.6-1.4S6.6,16,6,16s-1,0.2-1.4,0.6S4,17.5,4,18s0.2,1,0.6,1.4S5.5,20,6,20z"/>
</svg>
