<?xml version="1.0" encoding="utf-8"?>
<!-- Generator: Adobe Illustrator 27.8.0, SVG Export Plug-In . SVG Version: 6.00 Build 0)  -->
<svg version="1.1" id="Layer_1" xmlns="http://www.w3.org/2000/svg" xmlns:xlink="http://www.w3.org/1999/xlink" x="0px" y="0px"
	 viewBox="0 0 24 24" style="enable-background:new 0 0 24 24;" xml:space="preserve">
<style type="text/css">
	.st0{fill:#2E3138;}
</style>
<path class="st0" d="M12,22c-2.3-0.6-4.2-1.9-5.7-4S4,13.6,4,11.1V5l8-3l8,3v6.1c0,2.5-0.8,4.8-2.3,6.9C16.2,20.1,14.3,21.4,12,22z
	 M12,14c0.6,0,1-0.2,1.4-0.6S14,12.6,14,12s-0.2-1-0.6-1.4S12.6,10,12,10s-1,0.2-1.4,0.6S10,11.4,10,12s0.2,1,0.6,1.4S11.4,14,12,14
	z M12,19.9c0.8-0.2,1.4-0.6,2.1-1c0.6-0.5,1.2-1,1.7-1.6L14,15.4c-0.3,0.2-0.6,0.3-1,0.4C12.7,16,12.4,16,12,16
	c-1.1,0-2-0.4-2.8-1.2S8,13.1,8,12s0.4-2,1.2-2.8S10.9,8,12,8s2,0.4,2.8,1.2S16,10.9,16,12c0,0.4,0,0.7-0.1,1.1s-0.2,0.7-0.4,1
	l1.5,1.5c0.3-0.7,0.6-1.4,0.8-2.1c0.2-0.7,0.3-1.5,0.3-2.3V6.4l-6-2.2L6,6.4v4.7c0,2,0.6,3.9,1.7,5.5S10.3,19.4,12,19.9z"/>
</svg>
