<?xml version="1.0" encoding="utf-8"?>
<!-- Generator: Adobe Illustrator 27.8.0, SVG Export Plug-In . SVG Version: 6.00 Build 0)  -->
<svg version="1.1" id="Layer_1" xmlns="http://www.w3.org/2000/svg" xmlns:xlink="http://www.w3.org/1999/xlink" x="0px" y="0px"
	 viewBox="0 0 24 24" style="enable-background:new 0 0 24 24;" xml:space="preserve">
<style type="text/css">
	.st0{fill:#2E3138;}
</style>
<path class="st0" d="M4,20c-0.5,0-1-0.2-1.4-0.6S2,18.5,2,18V6c0-0.5,0.2-1,0.6-1.4C3,4.2,3.5,4,4,4h5v2H4v12h16V6h-5V4h5
	c0.6,0,1,0.2,1.4,0.6C21.8,5,22,5.4,22,6v12c0,0.5-0.2,1-0.6,1.4S20.6,20,20,20H4z M12,15.4l-5-5L8.4,9l2.6,2.6V4h2v7.6L15.6,9
	l1.4,1.4L12,15.4z"/>
</svg>
