<?xml version="1.0" encoding="utf-8"?>
<!-- Generator: Adobe Illustrator 27.8.0, SVG Export Plug-In . SVG Version: 6.00 Build 0)  -->
<svg version="1.1" id="Layer_1" xmlns="http://www.w3.org/2000/svg" xmlns:xlink="http://www.w3.org/1999/xlink" x="0px" y="0px"
	 viewBox="0 0 24 24" style="enable-background:new 0 0 24 24;" xml:space="preserve">
<style type="text/css">
	.st0{fill:#2E3138;}
</style>
<path class="st0" d="M3,21c-0.5,0-1-0.2-1.4-0.6S1,19.5,1,19V6c0-0.5,0.2-1,0.6-1.4C2,4.2,2.5,4,3,4h18c0.6,0,1,0.2,1.4,0.6
	C22.8,5,23,5.4,23,6v13c0,0.5-0.2,1-0.6,1.4S21.6,21,21,21H3z M3,19h18V6H3V19z M8,17h8v-1H8V17z M5,14h2v-2H5V14z M9,14h2v-2H9V14z
	 M13,14h2v-2h-2V14z M17,14h2v-2h-2V14z M5,10h2V8H5V10z M9,10h2V8H9V10z M13,10h2V8h-2V10z M17,10h2V8h-2V10z M3,19V6V19z"/>
</svg>
