<?xml version="1.0" encoding="utf-8"?>
<!-- Generator: Adobe Illustrator 27.8.0, SVG Export Plug-In . SVG Version: 6.00 Build 0)  -->
<svg version="1.1" id="Layer_1" xmlns="http://www.w3.org/2000/svg" xmlns:xlink="http://www.w3.org/1999/xlink" x="0px" y="0px"
	 viewBox="0 0 24 24" style="enable-background:new 0 0 24 24;" xml:space="preserve">
<style type="text/css">
	.st0{fill:#2E3138;}
</style>
<path class="st0" d="M4,20c-0.5,0-1-0.2-1.4-0.6S2,18.5,2,18V6c0-0.5,0.2-1,0.6-1.4C3,4.2,3.5,4,4,4h6l2,2h8c0.6,0,1,0.2,1.4,0.6
	C21.8,7,22,7.4,22,8H11.2l-2-2H4v12l2.4-8h17.1l-2.6,8.6c-0.1,0.4-0.4,0.8-0.7,1C19.8,19.9,19.4,20,19,20H4z M6.1,18H19l1.8-6H7.9
	L6.1,18z M6.1,18l1.8-6L6.1,18z M4,8V6V8z"/>
</svg>
