<?xml version="1.0" encoding="utf-8"?>
<!-- Generator: Adobe Illustrator 27.8.0, SVG Export Plug-In . SVG Version: 6.00 Build 0)  -->
<svg version="1.1" id="Layer_1" xmlns="http://www.w3.org/2000/svg" xmlns:xlink="http://www.w3.org/1999/xlink" x="0px" y="0px"
	 viewBox="0 0 24 24" style="enable-background:new 0 0 24 24;" xml:space="preserve">
<style type="text/css">
	.st0{fill:#2E3138;}
</style>
<path class="st0" d="M5,21c-0.5,0-1-0.2-1.4-0.6S3,19.5,3,19V5c0-0.5,0.2-1,0.6-1.4S4.5,3,5,3h4.2c0.2-0.6,0.5-1.1,1.1-1.4
	S11.4,1,12,1c0.7,0,1.3,0.2,1.8,0.6c0.5,0.4,0.9,0.9,1.1,1.4H19c0.6,0,1,0.2,1.4,0.6S21,4.4,21,5v14c0,0.5-0.2,1-0.6,1.4
	S19.6,21,19,21H5z M5,19h14V5h-2v3H7V5H5V19z M12,5c0.3,0,0.5-0.1,0.7-0.3S13,4.3,13,4s-0.1-0.5-0.3-0.7C12.5,3.1,12.3,3,12,3
	s-0.5,0.1-0.7,0.3C11.1,3.5,11,3.7,11,4s0.1,0.5,0.3,0.7S11.7,5,12,5z"/>
</svg>
