<?xml version="1.0" encoding="utf-8"?>
<!-- Generator: Adobe Illustrator 27.8.0, SVG Export Plug-In . SVG Version: 6.00 Build 0)  -->
<svg version="1.1" id="Layer_1" xmlns="http://www.w3.org/2000/svg" xmlns:xlink="http://www.w3.org/1999/xlink" x="0px" y="0px"
	 viewBox="0 0 24 24" style="enable-background:new 0 0 24 24;" xml:space="preserve">
<style type="text/css">
	.st0{fill:#2E3138;}
</style>
<g id="Group_263" transform="translate(0 0)">
	<path id="Path_183" class="st0" d="M19.8,5.7c-1.4-1.4-2.7-2.7-4.1-4.1c-0.2-0.2-0.5-0.3-0.8-0.3c-3,0-5.9,0-8.9,0
		C5,1.1,4,1.8,3.9,2.8c0,0.2,0,0.3,0,0.5c0,2.9,0,5.8,0,8.7s0,5.9,0,8.8c-0.1,1,0.6,1.9,1.6,2c0.1,0,0.2,0,0.4,0c4.1,0,8.1,0,12.2,0
		c1,0.1,1.9-0.6,2-1.6c0-0.1,0-0.2,0-0.4c0-4.8,0-9.6,0-14.4C20.1,6.1,20,5.9,19.8,5.7 M15.6,2.9l2.8,2.8c-0.7,0-1.5,0-2.2,0
		c-0.3-0.1-0.5-0.3-0.6-0.6C15.6,4.3,15.6,3.6,15.6,2.9 M19.2,7.1c0,4.5,0,9,0,13.5c0,1-0.2,1.2-1.2,1.2c-4,0-7.9,0-11.9,0
		c-0.9,0-1.2-0.3-1.2-1.2c0-5.8,0-11.6,0-17.4C4.9,2.3,5.2,2,6.1,2c2.7,0,5.5,0,8.2,0h0.5c0,0.6,0,1.2,0,1.8c0,0.3,0,0.6,0,0.9
		c0,1,0.8,1.8,1.8,1.8l0,0c0.9,0,1.7,0,2.7,0L19.2,7.1z"/>
	<path id="Path_184" class="st0" d="M16.3,14.3c-0.5,0-1,0-1.4,0c-0.4,0.1-0.8,0-1.1-0.3c-0.4-0.4-0.8-0.8-1.1-1.1
		c-0.3-0.2-0.4-0.6-0.2-1c0.2-0.6,0.5-1.5,0.6-2c0-0.3,0-1.4-1.1-1.5c-1-0.1-1.6,0.3-1.7,1.4c-0.1,0.9,0.2,1.8,0.8,2.5
		c0.1,0.2,0.2,0.4,0.1,0.6c-0.2,0.8-0.5,1.5-0.8,2.3c-0.1,0.2-0.2,0.3-0.4,0.4c-0.7,0.4-1.5,0.7-2.3,1.1c-0.3,0.2-0.6,0.4-0.9,0.7
		c-0.4,0.4-0.4,1,0,1.4C7,18.9,7.1,19,7.3,19c0.6,0.3,1.3,0.1,1.8-0.3c0.7-0.6,1.3-1.3,1.7-2.2c0.1-0.2,0.3-0.4,0.5-0.5
		c0.8-0.2,1.5-0.4,2.3-0.6c0.3-0.1,0.6,0,0.8,0.2c0.4,0.3,0.8,0.6,1.3,0.8c0.4,0.2,1,0.1,1.3-0.2c0.3-0.3,0.4-0.7,0.3-1.2
		C17.2,14.6,16.8,14.3,16.3,14.3 M7.5,18.1C8,17.6,8.7,17.2,9.4,17C8.8,18,8.1,18.5,7.5,18.1 M11.2,9.7c0.1-0.2,0.2-0.4,0.4-0.4
		c0.3,0,0.4,0.2,0.4,0.4c-0.1,0.6-0.1,1.2-0.2,1.8h-0.2C11.2,11,11,10.3,11.2,9.7 M12,13.6l1,1.1c-0.5,0.1-0.9,0.2-1.5,0.4
		C11.6,14.5,11.8,14,12,13.6 M16.3,15.6c-0.3-0.1-0.6-0.2-0.8-0.3v-0.2c0.3,0,0.6,0,0.8,0.1c0.1,0,0.1,0.1,0.1,0.2
		S16.3,15.6,16.3,15.6"/>
</g>
</svg>
