<?xml version="1.0" encoding="utf-8"?>
<!-- Generator: Adobe Illustrator 27.8.0, SVG Export Plug-In . SVG Version: 6.00 Build 0)  -->
<svg version="1.1" id="Layer_1" xmlns="http://www.w3.org/2000/svg" xmlns:xlink="http://www.w3.org/1999/xlink" x="0px" y="0px"
	 viewBox="0 0 24 24" style="enable-background:new 0 0 24 24;" xml:space="preserve">
<style type="text/css">
	.st0{fill:#2E3138;}
</style>
<g id="Group_273" transform="translate(0 0)">
	<path id="Path_199" class="st0" d="M3.6,12.1c0-3.1,0-6.3,0-9.4c0-0.2,0-0.3,0-0.5c0-0.5,0.4-1,0.9-1h0.1c2,0,3.9,0,5.9,0
		c1.5,0,3.1,0,4.6,0c0.3,0,0.6,0.1,0.8,0.3c1.4,1.3,2.7,2.7,4.1,4.1c0.2,0.2,0.3,0.5,0.3,0.7c0,5.2,0,10.4,0,15.6
		c0,0.5-0.4,0.8-0.8,0.8c-0.1,0-0.2,0-0.3,0H4.8c-0.1,0-0.2,0-0.3,0c-0.5,0-0.9-0.4-0.8-0.9c0,0,0,0,0-0.1
		C3.6,18.6,3.6,15.3,3.6,12.1 M9.1,11.2L9.1,11.2c0.3-0.2,0.6-0.4,0.9-0.6c0.2-0.2,0.5-0.3,0.7-0.1l0.1,0.1c0.5,0.5,0.9,0.9,1.4,1.4
		c0.1,0.1,0.2,0.1,0.3,0.1c-0.1-0.3-0.3-0.5-0.2-0.6c0.2-0.5,0.5-0.2,0.7,0l0.2-0.2h-0.1c0-0.2-0.1-0.5,0-0.6
		c0.2-0.1,0.5-0.1,0.8-0.1c0,0,0-0.1,0-0.2c0-0.2-0.1-0.4,0-0.4c0.1-0.1,0.3-0.1,0.4-0.1c0.1,0,0.2,0,0.3,0c0-0.1,0-0.2,0-0.3
		s0-0.3,0-0.4c0.1-0.1,0.3-0.1,0.4-0.1c0.3,0.1,0.4,0,0.3-0.3c-0.1-0.3,0.1-0.6,0.4-0.5C16,8.4,16,8.3,16,8c0-0.2,0-0.3,0.1-0.4
		s0.3-0.1,0.4,0s0.2,0.2,0.1,0.4c-0.1,0.4,0,0.3,0.3,0.3c0.2-0.1,0.4,0,0.4,0.2c0,0.1,0,0.2,0,0.2c-0.1,0.3,0,0.4,0.3,0.3
		c0.3,0,0.5,0.1,0.5,0.5c0,0.1,0.1,0.2,0.3,0.3c0.3,0,0.5,0.1,0.5,0.5c0,0.1,0.1,0.2,0.3,0.3c0.2,0,0.3,0.1,0.5,0V9.8
		c-0.2,0-0.4-0.1-0.6-0.2c-0.1-0.1-0.1-0.3,0-0.4c0.2-0.1,0.4-0.1,0.6-0.2V8.3c-0.2,0-0.4-0.1-0.6-0.2C19,8,19,7.8,19.1,7.7
		c0.2-0.1,0.4-0.2,0.6-0.2V6.8c-0.2,0-0.5,0-0.6-0.1c-0.3-0.3-0.6-0.3-0.9,0c-0.1,0.2-0.3,0.2-0.5,0.1l-0.1-0.1
		c-0.2-0.3-0.6-0.3-0.8-0.1l-0.1,0.1c-0.1,0.2-0.3,0.2-0.5,0.1c0,0,0,0-0.1-0.1c-0.3-0.3-0.6-0.3-1,0c-0.1,0.1-0.3,0.1-0.4,0
		c-0.1-0.1-0.2-0.2-0.1-0.4C14.7,6.2,14.8,6.1,15,6c0.1,0,0.2,0,0.3,0.1V5.3c-0.2,0-0.4-0.1-0.6-0.2c-0.1-0.1-0.1-0.2,0-0.4
		c0.2-0.1,0.4-0.2,0.7-0.2V3.8c-0.2,0-0.4-0.1-0.6-0.1c-0.1,0-0.1-0.4,0-0.4c0.2-0.1,0.4-0.2,0.7-0.2V2.3c-0.2,0-0.4-0.1-0.6-0.2
		c-0.2-0.2-0.6-0.2-0.9,0l0,0c-0.1,0.2-0.3,0.2-0.5,0.1l-0.1-0.1c-0.2-0.3-0.6-0.3-0.8-0.1l-0.1,0.1c-0.1,0.2-0.3,0.2-0.5,0.1
		l-0.1-0.1c-0.2-0.2-0.6-0.3-0.8-0.1L11,2.1c-0.1,0.2-0.3,0.2-0.5,0.1l-0.1-0.1c-0.6-0.2-0.9-0.2-1.2,0L9.1,2.2
		C9,2.3,8.8,2.4,8.6,2.2L8.5,2.1C8.3,1.9,8,1.9,7.7,2.1c0,0-0.1,0-0.1,0.1C7.5,2.3,7.3,2.4,7.2,2.3L7.1,2.2C6.8,1.9,6.5,1.9,6.2,2.1
		L6.1,2.2C6,2.3,5.8,2.4,5.7,2.3L5.6,2.2C5.3,1.8,4.9,1.9,4.5,2.3C4.3,2.6,4.3,2.9,4.6,3.1c0.2,0.1,0.2,0.3,0.1,0.5L4.6,3.7
		C4.3,3.9,4.3,4.3,4.5,4.5l0.1,0.1C4.7,4.7,4.8,5,4.7,5.1L4.6,5.2C4.3,5.4,4.3,5.8,4.5,6l0.1,0.1c0.2,0.1,0.2,0.3,0.1,0.5L4.6,6.7
		C4.3,6.9,4.3,7.3,4.5,7.5c0,0,0,0,0.1,0.1c0.2,0.2,0.3,0.4,0,0.6C4.3,8.4,4.3,8.8,4.5,9c0,0,0,0.1,0.1,0.1c0.2,0.1,0.2,0.3,0.1,0.5
		L4.6,9.7c-0.2,0.2-0.3,0.6-0.1,0.8c0,0,0,0,0.1,0.1c0.2,0.1,0.2,0.3,0.1,0.5c0,0.1-0.1,0.1-0.1,0.1c-0.2,0.2-0.3,0.6,0,0.8l0,0
		c0.3,0.2,0.3,0.4,0,0.7c-0.2,0.2-0.2,0.6,0,0.8l0,0c0.2,0.2,0.3,0.4,0.1,0.6c-0.4,0.3-0.2,0.7-0.2,1.1c0.2-0.1,0.3-0.3,0.3-0.4
		c0-0.4,0.1-0.6,0.5-0.5c0.2,0.1,0.3,0,0.3-0.3c0-0.2,0-0.3,0.1-0.4c0.1-0.1,0.3,0,0.5,0c0.1,0,0.2,0,0.2,0c0-0.3,0-0.7,0.1-0.7
		c0.2,0,0.4,0,0.7,0V13l0.2-0.1c-0.1-0.2-0.1-0.4-0.2-0.6C7,12.2,7.2,12,7.3,12c0.2,0.1,0.4,0.2,0.5,0.3L8,12.1
		c-0.1-0.2-0.2-0.3-0.3-0.5c0-0.1,0.2-0.3,0.3-0.3c0.2,0.1,0.4,0.3,0.5,0.4L9.1,11.2 M19.6,16.5H4.4c0,1.7,0,3.3,0,5
		c0,0.4,0.1,0.5,0.5,0.5c4.7,0,9.5,0,14.2,0c0.1,0,0.2,0,0.2,0c0.1-0.1,0.3-0.2,0.3-0.3C19.6,20,19.6,18.3,19.6,16.5 M16.3,9
		l-3.5,3.8c0.1,0.1,0.3,0.2,0.4,0.3c0.5,0.5,0.9,0.9,1.4,1.4c0.2,0.2,0.2,0.4,0,0.5c-0.1,0.1-0.4,0-0.6,0c-0.1,0-0.1-0.1-0.2-0.2
		c-1.1-1.1-2.1-2.1-3.2-3.2c-0.1-0.2-0.2-0.3-0.3-0.5l-5.4,4.6h14.6c0-1.1,0-2.3,0-3.4c0-0.1,0-0.2-0.1-0.3C18.4,11,17.4,10,16.3,9
		 M15.9,5.6h2.9l-2.9-2.9V5.6z"/>
	<path id="Path_200" class="st0" d="M9.1,11.2c-0.1,0-0.3,0.1-0.3,0c-0.1-0.1-0.3-0.3-0.3-0.4c0.1-0.2,0.2-0.3,0.3-0.3
		s0.3,0.2,0.3,0.3C9.2,10.9,9.1,11,9.1,11.2L9.1,11.2"/>
	<path id="Path_201" class="st0" d="M7.6,10H7c-0.1,0.3-0.1,0.6-0.5,0.5C6.1,10.3,6.2,10,6.4,9.8c-0.3,0-0.6,0-0.8-0.2
		C5.5,9.5,5.5,9.1,5.5,8.9c-0.2,0-0.4,0-0.6,0C4.8,8.8,4.8,8.7,4.8,8.6C4.9,8.4,5,8.3,5.2,8.2l0.1,0.1V7.7C5.1,7.5,4.9,7.4,4.8,7.2
		c0-0.1,0.1-0.3,0.2-0.3c0.2,0,0.4,0,0.6,0c0-0.1,0-0.2,0-0.3c0-0.1,0-0.3,0.1-0.4c0-0.1,0.2-0.1,0.3-0.1s0.2,0,0.3,0
		c0-0.2,0-0.5,0-0.7c0-0.1,0.3-0.1,0.4-0.1C6.8,5.5,7,5.7,7.1,5.9h0.5C7.7,5.7,7.9,5.5,8,5.3c0.1,0,0.3,0,0.4,0.1c0,0.2,0,0.4,0,0.6
		c0.1,0,0.2,0,0.3,0c0.2,0,0.4,0,0.4,0.1s0,0.3,0,0.4s0,0.2,0,0.3c0.2,0,0.4,0,0.7,0c0.1,0,0.2,0.3,0.1,0.3C9.8,7.4,9.6,7.5,9.4,7.7
		v0.5c0.2,0.1,0.4,0.3,0.5,0.5C9.9,8.8,9.8,9,9.7,9S9.4,9,9.2,9c0,0.1,0,0.2,0,0.2c0.1,0.4-0.1,0.6-0.5,0.5c-0.1,0-0.2,0-0.3,0
		c0,0.2,0,0.4,0,0.6c-0.1,0.1-0.2,0.1-0.3,0.1C7.9,10.3,7.7,10.2,7.6,10 M7.4,9.2c0.7,0,1.3-0.6,1.3-1.3S8.1,6.6,7.4,6.6
		S6,7.2,6,7.9S6.6,9.2,7.4,9.2C7.3,9.2,7.3,9.2,7.4,9.2"/>
	<path id="Path_202" class="st0" d="M4.6,2.7C4.8,2.5,5,2.3,5.1,2.3c0.2,0.1,0.3,0.2,0.3,0.4C5.5,2.8,5.2,3,5.1,3S4.8,2.9,4.6,2.7"
		/>
	<path id="Path_203" class="st0" d="M12.6,4.7c-0.2-0.2-0.3-0.4-0.3-0.5s0.2-0.3,0.3-0.3c0.2,0,0.3,0.2,0.4,0.3
		C12.9,4.3,12.7,4.5,12.6,4.7"/>
	<path id="Path_204" class="st0" d="M8.6,2.7C8.4,2.8,8.2,3,8.1,3C7.9,3,7.8,2.8,7.7,2.7c0-0.1,0.2-0.3,0.3-0.3
		C8.2,2.3,8.4,2.5,8.6,2.7"/>
	<path id="Path_205" class="st0" d="M5.1,11.1c0.2,0.2,0.4,0.4,0.4,0.5S5.3,12,5.2,11.9c-0.2,0-0.3-0.2-0.4-0.3
		C4.8,11.5,4.9,11.4,5.1,11.1"/>
	<path id="Path_206" class="st0" d="M14.1,3.2c-0.2-0.2-0.4-0.4-0.4-0.5c0.1-0.2,0.2-0.3,0.4-0.3c0.1,0,0.3,0.2,0.3,0.3
		C14.4,2.8,14.2,3,14.1,3.2"/>
	<path id="Path_207" class="st0" d="M12.5,3.2c-0.2-0.3-0.3-0.4-0.3-0.5s0.2-0.3,0.3-0.3c0.2,0,0.3,0.2,0.4,0.3
		C12.9,2.8,12.7,3,12.5,3.2"/>
	<path id="Path_208" class="st0" d="M13.1,7.2c-0.3,0.2-0.4,0.3-0.5,0.3s-0.3-0.2-0.3-0.3c0-0.2,0.2-0.3,0.3-0.4
		C12.7,6.8,12.8,7,13.1,7.2"/>
	<path id="Path_209" class="st0" d="M14.6,7.2c-0.3,0.1-0.4,0.3-0.6,0.3c-0.2-0.1-0.3-0.2-0.3-0.4c0-0.1,0.2-0.3,0.4-0.3
		C14.2,6.8,14.3,7,14.6,7.2"/>
	<path id="Path_210" class="st0" d="M17.6,7.1c-0.2,0.2-0.4,0.4-0.5,0.4c-0.2-0.1-0.3-0.2-0.4-0.4c0-0.1,0.2-0.3,0.3-0.3
		C17.1,6.8,17.3,7,17.6,7.1"/>
	<path id="Path_211" class="st0" d="M12.6,9.2c-0.2-0.3-0.4-0.4-0.3-0.5c0.1-0.2,0.2-0.3,0.4-0.3c0.1,0,0.3,0.2,0.3,0.3
		C12.9,8.8,12.7,8.9,12.6,9.2"/>
	<path id="Path_212" class="st0" d="M10.8,3.4c-0.2,0.2-0.4,0.4-0.5,0.3c-0.1,0-0.3-0.1-0.3-0.3c0-0.1,0.2-0.3,0.3-0.3
		C10.5,3.1,10.6,3.3,10.8,3.4"/>
	<path id="Path_213" class="st0" d="M10.1,2.7C9.8,2.9,9.7,3.1,9.6,3C9.4,3,9.3,2.8,9.2,2.7c0-0.1,0.2-0.3,0.3-0.3
		C9.7,2.4,9.9,2.5,10.1,2.7"/>
	<path id="Path_214" class="st0" d="M13.3,7.4c0.2,0.2,0.4,0.4,0.4,0.5s-0.2,0.4-0.3,0.3c-0.2,0-0.3-0.2-0.4-0.3
		C12.9,7.8,13.1,7.6,13.3,7.4"/>
	<path id="Path_215" class="st0" d="M5.9,2.9C6,3.2,6.2,3.3,6.2,3.5C6.1,3.6,6,3.7,5.8,3.8c-0.1,0-0.3-0.2-0.3-0.3
		C5.5,3.3,5.7,3.2,5.9,2.9"/>
	<path id="Path_216" class="st0" d="M7.9,3.5C7.6,3.6,7.5,3.8,7.3,3.8C7.2,3.8,7,3.5,7,3.5c0-0.2,0.2-0.3,0.3-0.4
		C7.5,3.1,7.6,3.3,7.9,3.5"/>
	<path id="Path_217" class="st0" d="M9.4,3.4C9.1,3.6,9,3.8,8.8,3.8c-0.1,0-0.3-0.2-0.3-0.3c0-0.2,0.2-0.3,0.3-0.4
		C9,3.1,9.1,3.3,9.4,3.4"/>
	<path id="Path_218" class="st0" d="M5.1,13.6c-0.2-0.3-0.4-0.4-0.3-0.5c0.1-0.2,0.2-0.3,0.4-0.3c0.1,0,0.3,0.2,0.3,0.3
		C5.5,13.2,5.3,13.4,5.1,13.6"/>
	<path id="Path_219" class="st0" d="M11.8,4c-0.2-0.3-0.4-0.4-0.3-0.5c0.1-0.2,0.2-0.3,0.4-0.3c0.1,0,0.3,0.2,0.3,0.3S12,3.7,11.8,4
		"/>
	<path id="Path_220" class="st0" d="M13.3,2.9c0.2,0.2,0.4,0.4,0.3,0.5c0,0.1-0.2,0.3-0.3,0.3c-0.2,0-0.3-0.2-0.4-0.3
		C12.9,3.3,13.1,3.2,13.3,2.9"/>
	<path id="Path_221" class="st0" d="M5.6,4.2C5.4,4.3,5.3,4.5,5.1,4.5C5,4.5,4.8,4.3,4.8,4.2C4.8,4,5,3.9,5.1,3.8
		C5.2,3.8,5.4,4,5.6,4.2"/>
	<path id="Path_222" class="st0" d="M17.8,8.4c-0.2-0.2-0.4-0.4-0.4-0.5s0.2-0.3,0.3-0.3c0.2,0,0.3,0.2,0.4,0.3
		C18.1,8,17.9,8.2,17.8,8.4"/>
	<path id="Path_223" class="st0" d="M8.1,3.7C8.3,4,8.5,4.1,8.4,4.2c0,0.2-0.2,0.3-0.3,0.3C8,4.5,7.8,4.3,7.7,4.2
		C7.7,4,7.9,3.9,8.1,3.7"/>
	<path id="Path_224" class="st0" d="M8.3,4.9c0.3-0.1,0.4-0.3,0.6-0.3C9,4.6,9.1,4.8,9.2,5C9.1,5.1,8.9,5.2,8.8,5.3
		C8.7,5.3,8.5,5.1,8.3,4.9"/>
	<path id="Path_225" class="st0" d="M18.5,7.7c-0.2-0.2-0.4-0.4-0.4-0.5c0-0.2,0.2-0.3,0.3-0.4c0.1,0,0.3,0.2,0.3,0.3
		C18.9,7.3,18.7,7.4,18.5,7.7"/>
	<path id="Path_226" class="st0" d="M6.4,10.9C6.1,11,6,11.2,5.8,11.2c-0.1,0-0.3-0.2-0.3-0.3c0.1-0.2,0.2-0.3,0.4-0.4
		C6,10.5,6.1,10.7,6.4,10.9"/>
	<path id="Path_227" class="st0" d="M10.1,4.2C9.9,4.4,9.7,4.5,9.6,4.5c-0.1,0-0.3-0.2-0.3-0.3c0-0.2,0.2-0.3,0.3-0.4
		C9.7,3.8,9.9,4,10.1,4.2"/>
	<path id="Path_228" class="st0" d="M7.9,10.9c-0.2,0.2-0.4,0.4-0.5,0.4C7.2,11.2,7,11,7,10.9c0-0.2,0.2-0.3,0.3-0.4
		C7.5,10.5,7.6,10.7,7.9,10.9"/>
	<path id="Path_229" class="st0" d="M13.3,5.4C13.1,5.2,13,5.1,13,4.9c0-0.1,0.2-0.3,0.3-0.3c0.2,0,0.3,0.2,0.4,0.3
		C13.7,5,13.5,5.2,13.3,5.4"/>
	<path id="Path_230" class="st0" d="M14,3.7c0.2,0.2,0.4,0.4,0.4,0.5s-0.2,0.3-0.3,0.3c-0.2,0-0.3-0.2-0.4-0.3
		C13.7,4.1,13.9,3.9,14,3.7"/>
	<path id="Path_231" class="st0" d="M7.1,11.6C6.9,11.8,6.7,12,6.6,12s-0.3-0.2-0.3-0.3c0.1-0.2,0.2-0.3,0.4-0.3
		C6.7,11.3,6.9,11.5,7.1,11.6"/>
	<path id="Path_232" class="st0" d="M5.8,12.9c-0.2-0.3-0.3-0.4-0.3-0.6c0-0.1,0.2-0.2,0.3-0.3c0.1,0.1,0.3,0.3,0.3,0.4
		C6.2,12.5,6,12.7,5.8,12.9"/>
	<path id="Path_233" class="st0" d="M11.1,6.2c-0.2-0.3-0.3-0.4-0.3-0.5s0.2-0.2,0.3-0.3c0.1,0.1,0.3,0.2,0.3,0.4
		C11.4,5.8,11.2,5.9,11.1,6.2"/>
	<path id="Path_234" class="st0" d="M11.8,11.4c-0.2-0.2-0.4-0.4-0.3-0.5c0-0.1,0.2-0.2,0.3-0.4c0.1,0.1,0.3,0.2,0.3,0.4
		C12.2,11,12,11.2,11.8,11.4"/>
	<path id="Path_235" class="st0" d="M10.8,7.9c-0.2,0.2-0.4,0.3-0.5,0.3S10,8,10,7.9c0.1-0.2,0.2-0.3,0.3-0.4
		C10.4,7.5,10.6,7.7,10.8,7.9"/>
	<path id="Path_236" class="st0" d="M12.3,7.9c-0.2,0.2-0.4,0.4-0.5,0.4c-0.2,0-0.3-0.2-0.4-0.3c0-0.1,0.2-0.3,0.3-0.3
		C11.9,7.5,12.1,7.7,12.3,7.9"/>
	<path id="Path_237" class="st0" d="M14.8,7.4C15,7.7,15.1,7.8,15.1,8c0,0.1-0.2,0.2-0.3,0.3c-0.1-0.1-0.3-0.3-0.3-0.4
		C14.4,7.8,14.6,7.6,14.8,7.4"/>
	<path id="Path_238" class="st0" d="M13.3,6.9c-0.2-0.3-0.4-0.4-0.3-0.5c0.1-0.2,0.2-0.3,0.4-0.3c0.1,0,0.3,0.2,0.3,0.3
		C13.6,6.5,13.5,6.7,13.3,6.9"/>
	<path id="Path_239" class="st0" d="M14.6,8.6C14.3,8.8,14.2,9,14.1,9c-0.2,0-0.3-0.2-0.4-0.3c0-0.1,0.2-0.3,0.3-0.3
		C14.2,8.3,14.3,8.5,14.6,8.6"/>
	<path id="Path_240" class="st0" d="M19,8.6C18.8,8.8,18.6,9,18.5,9c-0.2-0.1-0.3-0.2-0.3-0.4c0-0.1,0.2-0.3,0.3-0.3
		C18.6,8.3,18.8,8.5,19,8.6"/>
	<path id="Path_241" class="st0" d="M13.3,9.9C13.1,9.7,13,9.5,13,9.4s0.2-0.3,0.3-0.3c0.2,0.1,0.3,0.2,0.4,0.3
		C13.7,9.5,13.5,9.7,13.3,9.9"/>
	<path id="Path_242" class="st0" d="M11.8,4.4c0.2,0.2,0.4,0.4,0.4,0.5S12,5.2,11.9,5.2c-0.2,0-0.3-0.2-0.4-0.3
		C11.4,4.8,11.6,4.7,11.8,4.4"/>
	<path id="Path_243" class="st0" d="M13.1,10.2c-0.3,0.2-0.4,0.3-0.6,0.3c-0.1,0-0.2-0.2-0.3-0.3c0.1-0.1,0.3-0.3,0.4-0.3
		C12.7,9.8,12.8,10,13.1,10.2"/>
	<path id="Path_244" class="st0" d="M10.3,6.9C10.2,6.7,10,6.5,10,6.4s0.2-0.2,0.3-0.3c0.1,0.1,0.3,0.2,0.3,0.4
		C10.7,6.5,10.5,6.7,10.3,6.9"/>
	<path id="Path_245" class="st0" d="M11.9,9c0.1,0.1,0.3,0.3,0.2,0.4c-0.1,0.2-0.2,0.3-0.3,0.3c-0.2,0-0.3-0.2-0.3-0.3
		s0.2-0.3,0.3-0.4H11.9"/>
	<path id="Path_246" class="st0" d="M16.1,7.2c-0.2,0.2-0.4,0.4-0.5,0.3c-0.2-0.1-0.3-0.2-0.4-0.4c0-0.1,0.2-0.3,0.3-0.3
		C15.7,6.8,15.8,7,16.1,7.2"/>
	<path id="Path_247" class="st0" d="M11,3.2c-0.2-0.3-0.3-0.4-0.3-0.6c0-0.1,0.2-0.2,0.3-0.3c0.1,0.1,0.3,0.3,0.3,0.4
		C11.4,2.8,11.2,3,11,3.2"/>
	<path id="Path_248" class="st0" d="M7.1,4.2C6.9,4.4,6.7,4.5,6.6,4.5S6.3,4.3,6.3,4.2c0-0.2,0.2-0.3,0.3-0.4C6.7,3.8,6.9,4,7.1,4.2
		"/>
	<path id="Path_249" class="st0" d="M7.1,2.7C6.9,2.9,6.7,3,6.6,3S6.3,2.8,6.3,2.7c0.1-0.2,0.2-0.3,0.4-0.4C6.7,2.3,6.9,2.5,7.1,2.7
		"/>
	<path id="Path_250" class="st0" d="M11.6,4.2c-0.2,0.2-0.4,0.4-0.5,0.3c-0.2-0.1-0.3-0.2-0.4-0.3c0-0.1,0.2-0.3,0.3-0.3
		C11.2,3.8,11.3,4,11.6,4.2"/>
	<path id="Path_251" class="st0" d="M6.4,4.9C6.1,5.1,6,5.3,5.9,5.3C5.7,5.2,5.6,5,5.5,4.9c0.1-0.1,0.2-0.3,0.3-0.3
		C6,4.6,6.1,4.8,6.4,4.9"/>
	<path id="Path_252" class="st0" d="M7.4,4.5c0.1,0.1,0.3,0.3,0.3,0.4c0,0.2-0.2,0.3-0.3,0.3C7.2,5.2,7.1,5.1,7,5
		c0-0.1,0.1-0.3,0.2-0.4L7.4,4.5"/>
	<path id="Path_253" class="st0" d="M10.3,5.4C10.2,5.2,10,5,10,4.9s0.2-0.3,0.3-0.3c0.2,0.1,0.3,0.2,0.3,0.4
		C10.7,5.1,10.5,5.2,10.3,5.4"/>
	<path id="Path_254" class="st0" d="M11,6.6c0.2,0.2,0.4,0.4,0.4,0.5s-0.2,0.3-0.3,0.4c-0.1-0.1-0.3-0.2-0.3-0.3
		C10.7,7.1,10.9,6.9,11,6.6"/>
	<path id="Path_255" class="st0" d="M11,9.2c-0.2-0.3-0.3-0.4-0.3-0.6c0-0.1,0.2-0.2,0.3-0.3c0.1,0.1,0.3,0.2,0.3,0.4
		C11.4,8.8,11.2,8.9,11,9.2"/>
	<path id="Path_256" class="st0" d="M12.3,6.4c-0.2,0.2-0.4,0.4-0.5,0.3c-0.1,0-0.3-0.2-0.4-0.3c0.1-0.1,0.2-0.3,0.4-0.3
		C11.9,6.1,12.1,6.2,12.3,6.4"/>
	<path id="Path_257" class="st0" d="M5.1,10.7c-0.2-0.2-0.4-0.4-0.3-0.5C4.8,10,5,9.9,5.1,9.8c0.1,0,0.3,0.2,0.3,0.3
		C5.5,10.3,5.3,10.4,5.1,10.7"/>
	<path id="Path_258" class="st0" d="M5.6,5.7C5.4,5.9,5.2,6,5.1,6S4.9,5.8,4.8,5.7C4.9,5.5,5,5.4,5.2,5.3C5.3,5.3,5.4,5.5,5.6,5.7"
		/>
	<path id="Path_259" class="st0" d="M14.6,5.7C14.3,5.8,14.2,6,14.1,6c-0.1,0-0.3-0.2-0.4-0.3c0.1-0.1,0.2-0.3,0.4-0.3
		C14.2,5.3,14.3,5.5,14.6,5.7"/>
	<path id="Path_260" class="st0" d="M13.1,5.6C12.8,5.8,12.7,6,12.6,6c-0.1,0-0.3-0.2-0.4-0.3c0.1-0.1,0.2-0.3,0.3-0.3
		C12.7,5.3,12.8,5.5,13.1,5.6"/>
	<path id="Path_261" class="st0" d="M10.1,10.2c-0.3,0.2-0.4,0.3-0.6,0.3c-0.1,0-0.2-0.2-0.3-0.3C9.3,10,9.5,9.8,9.6,9.8
		C9.7,9.8,9.9,10,10.1,10.2"/>
	<path id="Path_262" class="st0" d="M10.1,5.6C9.9,5.8,9.7,6,9.6,6C9.5,6,9.4,5.8,9.2,5.7c0.1-0.1,0.2-0.3,0.3-0.3
		C9.7,5.3,9.8,5.5,10.1,5.6"/>
	<path id="Path_263" class="st0" d="M11,10.5c-0.1-0.1-0.2-0.3-0.2-0.4c0.1-0.2,0.2-0.3,0.3-0.3c0.2,0,0.3,0.2,0.3,0.3
		s-0.2,0.3-0.3,0.4H11"/>
	<path id="Path_264" class="st0" d="M10.8,9.4c-0.2,0.2-0.4,0.3-0.5,0.3s-0.2-0.2-0.4-0.3c0.1-0.1,0.2-0.3,0.4-0.3
		C10.5,9,10.6,9.2,10.8,9.4"/>
	<path id="Path_265" class="st0" d="M8.5,20.6H7.8v-3h1.1c0.3,0,0.7,0.1,1,0.2c0.2,0.2,0.3,0.4,0.3,0.7c0,0.3-0.1,0.6-0.4,0.7
		c-0.3,0.2-0.6,0.3-1,0.3H8.5V20.6z M8.9,18.2H8.5V19h0.4c0.2,0,0.3,0,0.5-0.1c0.1-0.1,0.2-0.2,0.2-0.3c0-0.1,0-0.2-0.1-0.3
		C9.2,18.2,9.1,18.2,8.9,18.2"/>
	<path id="Path_266" class="st0" d="M12.5,17.6h0.7v3h-0.6l-1.3-1.9v1.9h-0.7v-3h0.6l1.3,1.9V17.6z"/>
	<path id="Path_267" class="st0" d="M15.2,19h1.3v1.6H16l-0.1-0.3c-0.1,0.1-0.2,0.2-0.4,0.2s-0.3,0.1-0.5,0.1
		c-0.3,0-0.5-0.1-0.8-0.2c-0.2-0.1-0.4-0.3-0.5-0.5c-0.2-0.5-0.2-1.1,0-1.6c0.1-0.2,0.3-0.4,0.6-0.6c0.3-0.1,0.6-0.2,0.9-0.2
		c0.2,0,0.5,0,0.7,0.1c0.2,0.1,0.4,0.3,0.5,0.5l-0.5,0.4c-0.1-0.1-0.2-0.2-0.3-0.3c-0.1-0.1-0.3-0.1-0.4-0.1c-0.2,0-0.4,0-0.5,0.1
		s-0.3,0.2-0.3,0.3c-0.1,0.2-0.1,0.3-0.1,0.5s0.1,0.5,0.2,0.6c0.2,0.2,0.4,0.2,0.6,0.2c0.1,0,0.2,0,0.3-0.1c0.1,0,0.2-0.1,0.3-0.2
		s0.1-0.2,0.1-0.3h-0.6V19z"/>
</g>
</svg>
