<?xml version="1.0" encoding="utf-8"?>
<!-- Generator: Adobe Illustrator 27.8.0, SVG Export Plug-In . SVG Version: 6.00 Build 0)  -->
<svg version="1.1" id="Layer_1" xmlns="http://www.w3.org/2000/svg" xmlns:xlink="http://www.w3.org/1999/xlink" x="0px" y="0px"
	 viewBox="0 0 24 24" style="enable-background:new 0 0 24 24;" xml:space="preserve">
<style type="text/css">
	.st0{fill:#2E3138;}
</style>
<path class="st0" d="M9.9,19c-1.6,0-3-0.5-4.2-1.6c-1.2-1-1.7-2.4-1.7-3.9s0.6-2.9,1.7-3.9S8.3,8,9.9,8h6.3l-2.6-2.6L15,4l5,5l-5,5
	l-1.4-1.4l2.6-2.6H9.9c-1.1,0-2,0.3-2.7,1C6.4,11.7,6,12.5,6,13.5s0.4,1.8,1.2,2.5c0.8,0.7,1.7,1,2.7,1H17v2H9.9z"/>
</svg>
