<?xml version="1.0" encoding="utf-8"?>
<!-- Generator: Adobe Illustrator 27.8.0, SVG Export Plug-In . SVG Version: 6.00 Build 0)  -->
<svg version="1.1" id="Layer_1" xmlns="http://www.w3.org/2000/svg" xmlns:xlink="http://www.w3.org/1999/xlink" x="0px" y="0px"
	 viewBox="0 0 24 24" style="enable-background:new 0 0 24 24;" xml:space="preserve">
<style type="text/css">
	.st0{fill:#2E3138;}
</style>
<path class="st0" d="M12.7,18.5l2.3-1.4l2.3,1.4l-0.6-2.6l2-1.7l-2.6-0.2L15,11.5l-1.1,2.4l-2.6,0.2l2,1.7L12.7,18.5z M6,14v2H4
	c-0.5,0-1-0.2-1.4-0.6S2,14.6,2,14V4c0-0.5,0.2-1,0.6-1.4S3.5,2,4,2h10c0.6,0,1,0.2,1.4,0.6S16,3.4,16,4v2h-2V4H4v10H6z M10,22
	c-0.6,0-1-0.2-1.4-0.6S8,20.5,8,20V10c0-0.6,0.2-1,0.6-1.4S9.4,8,10,8h10c0.6,0,1,0.2,1.4,0.6S22,9.4,22,10v10c0,0.5-0.2,1-0.6,1.4
	S20.6,22,20,22H10z M10,20h10V10H10V20z"/>
</svg>
