<?xml version="1.0" encoding="utf-8"?>
<!-- Generator: Adobe Illustrator 27.8.0, SVG Export Plug-In . SVG Version: 6.00 Build 0)  -->
<svg version="1.1" id="Layer_1" xmlns="http://www.w3.org/2000/svg" xmlns:xlink="http://www.w3.org/1999/xlink" x="0px" y="0px"
	 viewBox="0 0 24 24" style="enable-background:new 0 0 24 24;" xml:space="preserve">
<style type="text/css">
	.st0{fill:#2E3138;}
</style>
<g id="Group_265" transform="translate(0 0)">
	<path id="Path_185" class="st0" d="M3,12C3,8.7,3,5.3,3,2c0-0.7,0.1-0.8,0.8-0.8c4,0,8,0,12,0c0.3,0,0.6,0.1,0.8,0.3
		c1.4,1.4,2.7,2.7,4.1,4.1C20.9,5.8,21,6.2,21,6.5c0,5.2,0,10.3,0,15.5c0,0.7-0.1,0.8-0.8,0.8H3.8C3.1,22.8,3,22.7,3,22
		C3,18.7,3,15.3,3,12 M20.1,6.6c-1.3,0-2.5,0-3.8,0c-0.6,0-0.7-0.1-0.7-0.7c0-0.7,0-1.3,0-2h-2.8c-0.3,0-0.5-0.1-0.5-0.4
		s0.2-0.4,0.5-0.5c0.2,0,0.4,0,0.6,0h2.2V2.1H3.9v19.7H20V6.6H20.1z M19.2,5.7l-2.7-2.8v2.8H19.2z"/>
	<path id="Path_186" class="st0" d="M16.4,15.9c-0.2-1.8-1.4-3.2-3-3.8c-0.2,0-0.5,0-0.7,0c-0.6,0-1.3-0.1-1.9-0.1
		c-0.1,0-0.1,0-0.2,0c-1.7,0.5-2.9,2-3,3.8c0.1,0,0.2,0,0.4,0c0.3,0,0.5,0.2,0.5,0.5l0,0c0,0.6,0,1.2,0,1.7c0,0.2-0.1,0.4-0.4,0.5H8
		c-0.6,0-1.1,0-1.7,0c-0.3,0-0.5-0.2-0.5-0.4V18c0-0.5,0-1.1,0-1.6c0-0.6,0.5-0.5,0.9-0.5c0-0.2,0.1-0.4,0.1-0.7
		c0.4-1.9,1.8-3.4,3.6-4c0.1-0.1,0.3-0.2,0.4-0.3l-0.1-0.1c-0.7,0-1.5,0-2.2,0c-0.1,0-0.2,0.2-0.3,0.3c-0.4,0.5-1,0.7-1.6,0.5
		c-0.7-0.3-1-1.1-0.7-1.8C6,9.4,6.5,9,7,9c0.5-0.1,1,0.2,1.2,0.6c0.1,0.2,0.3,0.3,0.5,0.3c0.5,0,0.9,0,1.4,0c0.3,0,0.6,0.1,0.7-0.3
		c0-0.1,0.3-0.1,0.4-0.1c0.5,0,1,0,1.6,0c0.2,0,0.4,0.1,0.4,0.2c0.1,0.3,0.4,0.3,0.6,0.3c0.3,0,0.6,0,1,0c0.5,0.1,0.9-0.1,1.2-0.5
		c0.5-0.5,1.2-0.6,1.8-0.1c0.1,0,0.1,0.1,0.2,0.2c0.5,0.6,0.5,1.4-0.1,1.9l0,0c-0.5,0.5-1.4,0.4-1.8-0.1L16,11.3
		c-0.1-0.3-0.4-0.4-0.7-0.4c-0.6,0-1.2,0-1.9,0c0.1,0.2,0.2,0.4,0.3,0.4c2.1,0.6,3.6,2.4,3.8,4.5v0.1c0.1,0,0.2,0,0.3,0
		c0.3,0,0.5,0.2,0.6,0.4v0.1c0,0.5,0,1,0,1.6c0,0.3-0.1,0.5-0.4,0.6h-0.1c-0.5,0-1,0-1.6,0c-0.4,0-0.6-0.1-0.6-0.6
		c0-0.4,0-0.8,0-1.2C15.6,16,15.6,16,16.4,15.9 M6.6,17.7h0.9v-0.8H6.6V17.7z M17.4,16.8h-0.8v0.8h0.8V16.8z M12.4,10.4h-0.9v0.8
		h0.8L12.4,10.4z M7.6,10.4v-0.2C7.4,10.1,7.2,9.9,7,9.9c-0.2,0.1-0.4,0.2-0.4,0.4s0.1,0.4,0.3,0.4c0.1,0,0.1,0,0.2,0
		C7.2,10.7,7.4,10.6,7.6,10.4 M17.1,9.8h-0.2c-0.1,0.2-0.3,0.3-0.3,0.5c-0.1,0.2,0.1,0.4,0.2,0.4s0.1,0,0.2,0c0.2,0,0.4-0.2,0.4-0.4
		C17.4,10.2,17.2,10,17.1,9.8"/>
</g>
</svg>
