<?xml version="1.0" encoding="utf-8"?>
<!-- Generator: Adobe Illustrator 27.8.0, SVG Export Plug-In . SVG Version: 6.00 Build 0)  -->
<svg version="1.1" id="Layer_1" xmlns="http://www.w3.org/2000/svg" xmlns:xlink="http://www.w3.org/1999/xlink" x="0px" y="0px"
	 viewBox="0 0 24 24" style="enable-background:new 0 0 24 24;" xml:space="preserve">
<style type="text/css">
	.st0{fill:#2E3138;}
</style>
<path class="st0" d="M7,19v-2h7.1c1.1,0,2-0.3,2.7-1c0.8-0.7,1.2-1.5,1.2-2.5s-0.4-1.8-1.2-2.5c-0.8-0.7-1.7-1-2.7-1H7.8l2.6,2.6
	L9,14L4,9l5-5l1.4,1.4L7.8,8h6.3c1.6,0,3,0.5,4.2,1.6s1.7,2.4,1.7,3.9s-0.6,2.9-1.7,3.9c-1.2,1.1-2.5,1.6-4.2,1.6H7z"/>
</svg>
