<?xml version="1.0" encoding="utf-8"?>
<!-- Generator: Adobe Illustrator 27.8.0, SVG Export Plug-In . SVG Version: 6.00 Build 0)  -->
<svg version="1.1" id="Layer_1" xmlns="http://www.w3.org/2000/svg" xmlns:xlink="http://www.w3.org/1999/xlink" x="0px" y="0px"
	 viewBox="0 0 24 24" style="enable-background:new 0 0 24 24;" xml:space="preserve">
<style type="text/css">
	.st0{fill:#2E3138;}
</style>
<path class="st0" d="M6,20h12V10H6V20z M12,17c0.6,0,1-0.2,1.4-0.6S14,15.6,14,15s-0.2-1-0.6-1.4S12.6,13,12,13s-1,0.2-1.4,0.6
	S10,14.4,10,15s0.2,1,0.6,1.4S11.4,17,12,17z M6,20V10V20z M6,22c-0.5,0-1-0.2-1.4-0.6S4,20.5,4,20V10c0-0.6,0.2-1,0.6-1.4
	S5.5,8,6,8h7V6c0-1.4,0.5-2.6,1.5-3.5S16.6,1,18,1s2.6,0.5,3.5,1.5S23,4.6,23,6h-2c0-0.8-0.3-1.5-0.9-2.1C19.5,3.3,18.8,3,18,3
	c-0.8,0-1.5,0.3-2.1,0.9C15.3,4.5,15,5.2,15,6v2h3c0.6,0,1,0.2,1.4,0.6S20,9.4,20,10v10c0,0.5-0.2,1-0.6,1.4S18.6,22,18,22H6z"/>
</svg>
