<?xml version="1.0" encoding="utf-8"?>
<!-- Generator: Adobe Illustrator 27.8.0, SVG Export Plug-In . SVG Version: 6.00 Build 0)  -->
<svg version="1.1" id="Layer_1" xmlns="http://www.w3.org/2000/svg" xmlns:xlink="http://www.w3.org/1999/xlink" x="0px" y="0px"
	 viewBox="0 0 24 24" style="enable-background:new 0 0 24 24;" xml:space="preserve">
<style type="text/css">
	.st0{fill:#2E3138;}
</style>
<path class="st0" d="M12,21c-1.2,0-2.4-0.2-3.5-0.7s-2-1.1-2.8-1.9c-0.8-0.8-1.5-1.8-1.9-2.8S3,13.2,3,12s0.2-2.4,0.7-3.5
	s1.1-2,1.9-2.9s1.8-1.5,2.8-1.9S10.8,3,12,3c1.4,0,2.7,0.3,3.9,0.9c1.2,0.6,2.3,1.4,3.1,2.5V4h2v6h-6V8h2.8
	c-0.7-0.9-1.5-1.7-2.5-2.2S13.2,5,12,5c-1.9,0-3.6,0.7-5,2s-2,3-2,5s0.7,3.6,2,5s3,2,5,2c1.8,0,3.3-0.6,4.6-1.7
	c1.3-1.1,2.1-2.6,2.3-4.3H21c-0.2,2.3-1.2,4.2-2.9,5.7C16.3,20.2,14.3,21,12,21z M14.8,16.2L11,12.4V7h2v4.6l3.2,3.2L14.8,16.2z"/>
</svg>
